G04 (created by PCBNEW (2013-09-28 BZR 4356)-product) date 12/11/2013 13:19:40*
%MOIN*%
G04 Gerber Fmt 3.4, Leading zero omitted, Abs format*
%FSLAX34Y34*%
G01*
G70*
G90*
G04 APERTURE LIST*
%ADD10C,0.005906*%
%ADD11C,0.014173*%
%ADD12C,0.008858*%
%ADD13C,0.007480*%
%ADD14C,0.007874*%
%ADD15C,0.004331*%
%ADD16C,0.007087*%
G04 APERTURE END LIST*
G54D10*
G54D11*
X3686Y-1430D02*
X43Y-1430D01*
X3686Y-43D02*
X3686Y-1410D01*
G54D10*
X29772Y-21531D02*
X29772Y-20430D01*
G54D12*
X11836Y-15500D02*
X11636Y-15500D01*
X11336Y-15500D02*
X11136Y-15500D01*
X34736Y-15600D02*
X34736Y-15400D01*
X29736Y-15600D02*
X29736Y-15400D01*
X24736Y-15600D02*
X24736Y-15400D01*
X39336Y-15500D02*
X39136Y-15500D01*
X38836Y-15500D02*
X38636Y-15500D01*
X37836Y-15500D02*
X37636Y-15500D01*
X38336Y-15500D02*
X38136Y-15500D01*
X36336Y-15500D02*
X36136Y-15500D01*
X35836Y-15500D02*
X35636Y-15500D01*
X36836Y-15500D02*
X36636Y-15500D01*
X37336Y-15500D02*
X37136Y-15500D01*
X33336Y-15500D02*
X33136Y-15500D01*
X32836Y-15500D02*
X32636Y-15500D01*
X31836Y-15500D02*
X31636Y-15500D01*
X32336Y-15500D02*
X32136Y-15500D01*
X34336Y-15500D02*
X34136Y-15500D01*
X33836Y-15500D02*
X33636Y-15500D01*
X34836Y-15500D02*
X34636Y-15500D01*
X35336Y-15500D02*
X35136Y-15500D01*
X27336Y-15500D02*
X27136Y-15500D01*
X26836Y-15500D02*
X26636Y-15500D01*
X25836Y-15500D02*
X25636Y-15500D01*
X26336Y-15500D02*
X26136Y-15500D01*
X24836Y-15500D02*
X24636Y-15500D01*
X25336Y-15500D02*
X25136Y-15500D01*
X29336Y-15500D02*
X29136Y-15500D01*
X28836Y-15500D02*
X28636Y-15500D01*
X27836Y-15500D02*
X27636Y-15500D01*
X28336Y-15500D02*
X28136Y-15500D01*
X30336Y-15500D02*
X30136Y-15500D01*
X29836Y-15500D02*
X29636Y-15500D01*
X30836Y-15500D02*
X30636Y-15500D01*
X31336Y-15500D02*
X31136Y-15500D01*
X23336Y-15500D02*
X23136Y-15500D01*
X22836Y-15500D02*
X22636Y-15500D01*
X23836Y-15500D02*
X23636Y-15500D01*
X24336Y-15500D02*
X24136Y-15500D01*
X20336Y-15500D02*
X20136Y-15500D01*
X19836Y-15500D02*
X19636Y-15500D01*
X21336Y-15500D02*
X21136Y-15500D01*
X20836Y-15500D02*
X20636Y-15500D01*
X21836Y-15500D02*
X21636Y-15500D01*
X22336Y-15500D02*
X22136Y-15500D01*
X19736Y-15600D02*
X19736Y-15400D01*
X4736Y-15600D02*
X4736Y-15400D01*
X7336Y-15500D02*
X7136Y-15500D01*
X6836Y-15500D02*
X6636Y-15500D01*
X5836Y-15500D02*
X5636Y-15500D01*
X6336Y-15500D02*
X6136Y-15500D01*
X4836Y-15500D02*
X4636Y-15500D01*
X5336Y-15500D02*
X5136Y-15500D01*
X9336Y-15500D02*
X9136Y-15500D01*
X8836Y-15500D02*
X8636Y-15500D01*
X7836Y-15500D02*
X7636Y-15500D01*
X8336Y-15500D02*
X8136Y-15500D01*
X16336Y-15500D02*
X16136Y-15500D01*
X15836Y-15500D02*
X15636Y-15500D01*
X14836Y-15500D02*
X14636Y-15500D01*
X15336Y-15500D02*
X15136Y-15500D01*
X13336Y-15500D02*
X13136Y-15500D01*
X12836Y-15500D02*
X12636Y-15500D01*
X13836Y-15500D02*
X13636Y-15500D01*
X14336Y-15500D02*
X14136Y-15500D01*
X10336Y-15500D02*
X10136Y-15500D01*
X9836Y-15500D02*
X9636Y-15500D01*
X10836Y-15500D02*
X10636Y-15500D01*
X12336Y-15500D02*
X12136Y-15500D01*
X18836Y-15500D02*
X18636Y-15500D01*
X19336Y-15500D02*
X19136Y-15500D01*
X17336Y-15500D02*
X17136Y-15500D01*
X16836Y-15500D02*
X16636Y-15500D01*
X17836Y-15500D02*
X17636Y-15500D01*
X18336Y-15500D02*
X18136Y-15500D01*
X9736Y-15600D02*
X9736Y-15400D01*
X14736Y-15600D02*
X14736Y-15400D01*
X4336Y-15500D02*
X4136Y-15500D01*
X3836Y-15500D02*
X3636Y-15500D01*
X1336Y-15500D02*
X1136Y-15500D01*
X2336Y-15500D02*
X2136Y-15500D01*
X1836Y-15500D02*
X1636Y-15500D01*
X2836Y-15500D02*
X2636Y-15500D01*
X3336Y-15500D02*
X3136Y-15500D01*
X34736Y-11100D02*
X34736Y-10900D01*
X34736Y-13100D02*
X34736Y-12900D01*
X34736Y-12600D02*
X34736Y-12400D01*
X34736Y-11600D02*
X34736Y-11400D01*
X34736Y-12100D02*
X34736Y-11900D01*
X34736Y-14100D02*
X34736Y-13900D01*
X34736Y-13600D02*
X34736Y-13400D01*
X34736Y-14600D02*
X34736Y-14400D01*
X34736Y-15100D02*
X34736Y-14900D01*
X29736Y-11100D02*
X29736Y-10900D01*
X29736Y-13100D02*
X29736Y-12900D01*
X29736Y-12600D02*
X29736Y-12400D01*
X29736Y-11600D02*
X29736Y-11400D01*
X29736Y-12100D02*
X29736Y-11900D01*
X29736Y-14100D02*
X29736Y-13900D01*
X29736Y-13600D02*
X29736Y-13400D01*
X29736Y-14600D02*
X29736Y-14400D01*
X29736Y-15100D02*
X29736Y-14900D01*
X24736Y-11100D02*
X24736Y-10900D01*
X24736Y-13100D02*
X24736Y-12900D01*
X24736Y-12600D02*
X24736Y-12400D01*
X24736Y-11600D02*
X24736Y-11400D01*
X24736Y-12100D02*
X24736Y-11900D01*
X24736Y-14100D02*
X24736Y-13900D01*
X24736Y-13600D02*
X24736Y-13400D01*
X24736Y-14600D02*
X24736Y-14400D01*
X24736Y-15100D02*
X24736Y-14900D01*
X19736Y-11100D02*
X19736Y-10900D01*
X19736Y-13100D02*
X19736Y-12900D01*
X19736Y-12600D02*
X19736Y-12400D01*
X19736Y-11600D02*
X19736Y-11400D01*
X19736Y-12100D02*
X19736Y-11900D01*
X19736Y-14100D02*
X19736Y-13900D01*
X19736Y-13600D02*
X19736Y-13400D01*
X19736Y-14600D02*
X19736Y-14400D01*
X19736Y-15100D02*
X19736Y-14900D01*
X14736Y-11100D02*
X14736Y-10900D01*
X14736Y-13100D02*
X14736Y-12900D01*
X14736Y-12600D02*
X14736Y-12400D01*
X14736Y-11600D02*
X14736Y-11400D01*
X14736Y-12100D02*
X14736Y-11900D01*
X14736Y-14100D02*
X14736Y-13900D01*
X14736Y-13600D02*
X14736Y-13400D01*
X14736Y-14600D02*
X14736Y-14400D01*
X14736Y-15100D02*
X14736Y-14900D01*
X9736Y-11100D02*
X9736Y-10900D01*
X9736Y-13100D02*
X9736Y-12900D01*
X9736Y-12600D02*
X9736Y-12400D01*
X9736Y-11600D02*
X9736Y-11400D01*
X9736Y-12100D02*
X9736Y-11900D01*
X9736Y-14100D02*
X9736Y-13900D01*
X9736Y-13600D02*
X9736Y-13400D01*
X9736Y-14600D02*
X9736Y-14400D01*
X9736Y-15100D02*
X9736Y-14900D01*
X4736Y-11100D02*
X4736Y-10900D01*
X4736Y-13100D02*
X4736Y-12900D01*
X4736Y-12600D02*
X4736Y-12400D01*
X4736Y-11600D02*
X4736Y-11400D01*
X4736Y-12100D02*
X4736Y-11900D01*
X4736Y-14100D02*
X4736Y-13900D01*
X4736Y-13600D02*
X4736Y-13400D01*
X4736Y-14600D02*
X4736Y-14400D01*
X4736Y-15100D02*
X4736Y-14900D01*
X34736Y-10600D02*
X34736Y-10400D01*
X29736Y-10600D02*
X29736Y-10400D01*
X24736Y-10600D02*
X24736Y-10400D01*
X39336Y-10500D02*
X39136Y-10500D01*
X38836Y-10500D02*
X38636Y-10500D01*
X37836Y-10500D02*
X37636Y-10500D01*
X38336Y-10500D02*
X38136Y-10500D01*
X36336Y-10500D02*
X36136Y-10500D01*
X35836Y-10500D02*
X35636Y-10500D01*
X36836Y-10500D02*
X36636Y-10500D01*
X37336Y-10500D02*
X37136Y-10500D01*
X33336Y-10500D02*
X33136Y-10500D01*
X32836Y-10500D02*
X32636Y-10500D01*
X31836Y-10500D02*
X31636Y-10500D01*
X32336Y-10500D02*
X32136Y-10500D01*
X34336Y-10500D02*
X34136Y-10500D01*
X33836Y-10500D02*
X33636Y-10500D01*
X34836Y-10500D02*
X34636Y-10500D01*
X35336Y-10500D02*
X35136Y-10500D01*
X27336Y-10500D02*
X27136Y-10500D01*
X26836Y-10500D02*
X26636Y-10500D01*
X25836Y-10500D02*
X25636Y-10500D01*
X26336Y-10500D02*
X26136Y-10500D01*
X24836Y-10500D02*
X24636Y-10500D01*
X25336Y-10500D02*
X25136Y-10500D01*
X29336Y-10500D02*
X29136Y-10500D01*
X28836Y-10500D02*
X28636Y-10500D01*
X27836Y-10500D02*
X27636Y-10500D01*
X28336Y-10500D02*
X28136Y-10500D01*
X30336Y-10500D02*
X30136Y-10500D01*
X29836Y-10500D02*
X29636Y-10500D01*
X30836Y-10500D02*
X30636Y-10500D01*
X31336Y-10500D02*
X31136Y-10500D01*
X23336Y-10500D02*
X23136Y-10500D01*
X22836Y-10500D02*
X22636Y-10500D01*
X23836Y-10500D02*
X23636Y-10500D01*
X24336Y-10500D02*
X24136Y-10500D01*
X20336Y-10500D02*
X20136Y-10500D01*
X19836Y-10500D02*
X19636Y-10500D01*
X21336Y-10500D02*
X21136Y-10500D01*
X20836Y-10500D02*
X20636Y-10500D01*
X21836Y-10500D02*
X21636Y-10500D01*
X22336Y-10500D02*
X22136Y-10500D01*
X19736Y-10600D02*
X19736Y-10400D01*
X4736Y-10600D02*
X4736Y-10400D01*
X7336Y-10500D02*
X7136Y-10500D01*
X6836Y-10500D02*
X6636Y-10500D01*
X5836Y-10500D02*
X5636Y-10500D01*
X6336Y-10500D02*
X6136Y-10500D01*
X4836Y-10500D02*
X4636Y-10500D01*
X5336Y-10500D02*
X5136Y-10500D01*
X9336Y-10500D02*
X9136Y-10500D01*
X8836Y-10500D02*
X8636Y-10500D01*
X7836Y-10500D02*
X7636Y-10500D01*
X8336Y-10500D02*
X8136Y-10500D01*
X16336Y-10500D02*
X16136Y-10500D01*
X15836Y-10500D02*
X15636Y-10500D01*
X14836Y-10500D02*
X14636Y-10500D01*
X15336Y-10500D02*
X15136Y-10500D01*
X13336Y-10500D02*
X13136Y-10500D01*
X12836Y-10500D02*
X12636Y-10500D01*
X13836Y-10500D02*
X13636Y-10500D01*
X14336Y-10500D02*
X14136Y-10500D01*
X10336Y-10500D02*
X10136Y-10500D01*
X9836Y-10500D02*
X9636Y-10500D01*
X11336Y-10500D02*
X11136Y-10500D01*
X10836Y-10500D02*
X10636Y-10500D01*
X11836Y-10500D02*
X11636Y-10500D01*
X12336Y-10500D02*
X12136Y-10500D01*
X18836Y-10500D02*
X18636Y-10500D01*
X19336Y-10500D02*
X19136Y-10500D01*
X17336Y-10500D02*
X17136Y-10500D01*
X16836Y-10500D02*
X16636Y-10500D01*
X17836Y-10500D02*
X17636Y-10500D01*
X18336Y-10500D02*
X18136Y-10500D01*
X9736Y-10600D02*
X9736Y-10400D01*
X14736Y-10600D02*
X14736Y-10400D01*
X4336Y-10500D02*
X4136Y-10500D01*
X3836Y-10500D02*
X3636Y-10500D01*
X1336Y-10500D02*
X1136Y-10500D01*
X2336Y-10500D02*
X2136Y-10500D01*
X1836Y-10500D02*
X1636Y-10500D01*
X2836Y-10500D02*
X2636Y-10500D01*
X3336Y-10500D02*
X3136Y-10500D01*
X34736Y-6100D02*
X34736Y-5900D01*
X34736Y-8100D02*
X34736Y-7900D01*
X34736Y-7600D02*
X34736Y-7400D01*
X34736Y-6600D02*
X34736Y-6400D01*
X34736Y-7100D02*
X34736Y-6900D01*
X34736Y-9100D02*
X34736Y-8900D01*
X34736Y-8600D02*
X34736Y-8400D01*
X34736Y-9600D02*
X34736Y-9400D01*
X34736Y-10100D02*
X34736Y-9900D01*
X29736Y-6100D02*
X29736Y-5900D01*
X29736Y-8100D02*
X29736Y-7900D01*
X29736Y-7600D02*
X29736Y-7400D01*
X29736Y-6600D02*
X29736Y-6400D01*
X29736Y-7100D02*
X29736Y-6900D01*
X29736Y-9100D02*
X29736Y-8900D01*
X29736Y-8600D02*
X29736Y-8400D01*
X29736Y-9600D02*
X29736Y-9400D01*
X29736Y-10100D02*
X29736Y-9900D01*
X24736Y-6100D02*
X24736Y-5900D01*
X24736Y-8100D02*
X24736Y-7900D01*
X24736Y-7600D02*
X24736Y-7400D01*
X24736Y-6600D02*
X24736Y-6400D01*
X24736Y-7100D02*
X24736Y-6900D01*
X24736Y-9100D02*
X24736Y-8900D01*
X24736Y-8600D02*
X24736Y-8400D01*
X24736Y-9600D02*
X24736Y-9400D01*
X24736Y-10100D02*
X24736Y-9900D01*
X19736Y-6100D02*
X19736Y-5900D01*
X19736Y-8100D02*
X19736Y-7900D01*
X19736Y-7600D02*
X19736Y-7400D01*
X19736Y-6600D02*
X19736Y-6400D01*
X19736Y-7100D02*
X19736Y-6900D01*
X19736Y-9100D02*
X19736Y-8900D01*
X19736Y-8600D02*
X19736Y-8400D01*
X19736Y-9600D02*
X19736Y-9400D01*
X19736Y-10100D02*
X19736Y-9900D01*
X14736Y-6100D02*
X14736Y-5900D01*
X14736Y-8100D02*
X14736Y-7900D01*
X14736Y-7600D02*
X14736Y-7400D01*
X14736Y-6600D02*
X14736Y-6400D01*
X14736Y-7100D02*
X14736Y-6900D01*
X14736Y-9100D02*
X14736Y-8900D01*
X14736Y-8600D02*
X14736Y-8400D01*
X14736Y-9600D02*
X14736Y-9400D01*
X14736Y-10100D02*
X14736Y-9900D01*
X9736Y-6100D02*
X9736Y-5900D01*
X9736Y-8100D02*
X9736Y-7900D01*
X9736Y-7600D02*
X9736Y-7400D01*
X9736Y-6600D02*
X9736Y-6400D01*
X9736Y-7100D02*
X9736Y-6900D01*
X9736Y-9100D02*
X9736Y-8900D01*
X9736Y-8600D02*
X9736Y-8400D01*
X9736Y-9600D02*
X9736Y-9400D01*
X9736Y-10100D02*
X9736Y-9900D01*
X4736Y-6100D02*
X4736Y-5900D01*
X4736Y-8100D02*
X4736Y-7900D01*
X4736Y-7600D02*
X4736Y-7400D01*
X4736Y-6600D02*
X4736Y-6400D01*
X4736Y-7100D02*
X4736Y-6900D01*
X4736Y-9100D02*
X4736Y-8900D01*
X4736Y-8600D02*
X4736Y-8400D01*
X4736Y-9600D02*
X4736Y-9400D01*
X4736Y-10100D02*
X4736Y-9900D01*
X34736Y-5600D02*
X34736Y-5400D01*
X29736Y-5600D02*
X29736Y-5400D01*
X24736Y-5600D02*
X24736Y-5400D01*
X39336Y-5500D02*
X39136Y-5500D01*
X38836Y-5500D02*
X38636Y-5500D01*
X37836Y-5500D02*
X37636Y-5500D01*
X38336Y-5500D02*
X38136Y-5500D01*
X36336Y-5500D02*
X36136Y-5500D01*
X35836Y-5500D02*
X35636Y-5500D01*
X36836Y-5500D02*
X36636Y-5500D01*
X37336Y-5500D02*
X37136Y-5500D01*
X33336Y-5500D02*
X33136Y-5500D01*
X32836Y-5500D02*
X32636Y-5500D01*
X31836Y-5500D02*
X31636Y-5500D01*
X32336Y-5500D02*
X32136Y-5500D01*
X34336Y-5500D02*
X34136Y-5500D01*
X33836Y-5500D02*
X33636Y-5500D01*
X34836Y-5500D02*
X34636Y-5500D01*
X35336Y-5500D02*
X35136Y-5500D01*
X27336Y-5500D02*
X27136Y-5500D01*
X26836Y-5500D02*
X26636Y-5500D01*
X25836Y-5500D02*
X25636Y-5500D01*
X26336Y-5500D02*
X26136Y-5500D01*
X24836Y-5500D02*
X24636Y-5500D01*
X25336Y-5500D02*
X25136Y-5500D01*
X29336Y-5500D02*
X29136Y-5500D01*
X28836Y-5500D02*
X28636Y-5500D01*
X27836Y-5500D02*
X27636Y-5500D01*
X28336Y-5500D02*
X28136Y-5500D01*
X30336Y-5500D02*
X30136Y-5500D01*
X29836Y-5500D02*
X29636Y-5500D01*
X30836Y-5500D02*
X30636Y-5500D01*
X31336Y-5500D02*
X31136Y-5500D01*
X23336Y-5500D02*
X23136Y-5500D01*
X22836Y-5500D02*
X22636Y-5500D01*
X23836Y-5500D02*
X23636Y-5500D01*
X24336Y-5500D02*
X24136Y-5500D01*
X20336Y-5500D02*
X20136Y-5500D01*
X19836Y-5500D02*
X19636Y-5500D01*
X21336Y-5500D02*
X21136Y-5500D01*
X20836Y-5500D02*
X20636Y-5500D01*
X21836Y-5500D02*
X21636Y-5500D01*
X22336Y-5500D02*
X22136Y-5500D01*
X19736Y-5600D02*
X19736Y-5400D01*
X4736Y-5600D02*
X4736Y-5400D01*
X7336Y-5500D02*
X7136Y-5500D01*
X6836Y-5500D02*
X6636Y-5500D01*
X5836Y-5500D02*
X5636Y-5500D01*
X6336Y-5500D02*
X6136Y-5500D01*
X4836Y-5500D02*
X4636Y-5500D01*
X5336Y-5500D02*
X5136Y-5500D01*
X9336Y-5500D02*
X9136Y-5500D01*
X8836Y-5500D02*
X8636Y-5500D01*
X7836Y-5500D02*
X7636Y-5500D01*
X8336Y-5500D02*
X8136Y-5500D01*
X16336Y-5500D02*
X16136Y-5500D01*
X15836Y-5500D02*
X15636Y-5500D01*
X14836Y-5500D02*
X14636Y-5500D01*
X15336Y-5500D02*
X15136Y-5500D01*
X13336Y-5500D02*
X13136Y-5500D01*
X12836Y-5500D02*
X12636Y-5500D01*
X13836Y-5500D02*
X13636Y-5500D01*
X14336Y-5500D02*
X14136Y-5500D01*
X10336Y-5500D02*
X10136Y-5500D01*
X9836Y-5500D02*
X9636Y-5500D01*
X11336Y-5500D02*
X11136Y-5500D01*
X10836Y-5500D02*
X10636Y-5500D01*
X11836Y-5500D02*
X11636Y-5500D01*
X12336Y-5500D02*
X12136Y-5500D01*
X18836Y-5500D02*
X18636Y-5500D01*
X19336Y-5500D02*
X19136Y-5500D01*
X17336Y-5500D02*
X17136Y-5500D01*
X16836Y-5500D02*
X16636Y-5500D01*
X17836Y-5500D02*
X17636Y-5500D01*
X18336Y-5500D02*
X18136Y-5500D01*
X9736Y-5600D02*
X9736Y-5400D01*
X14736Y-5600D02*
X14736Y-5400D01*
X4336Y-5500D02*
X4136Y-5500D01*
X3836Y-5500D02*
X3636Y-5500D01*
X1336Y-5500D02*
X1136Y-5500D01*
X2336Y-5500D02*
X2136Y-5500D01*
X1836Y-5500D02*
X1636Y-5500D01*
X2836Y-5500D02*
X2636Y-5500D01*
X3336Y-5500D02*
X3136Y-5500D01*
X34736Y-1100D02*
X34736Y-900D01*
X34736Y-3100D02*
X34736Y-2900D01*
X34736Y-2600D02*
X34736Y-2400D01*
X34736Y-1600D02*
X34736Y-1400D01*
X34736Y-2100D02*
X34736Y-1900D01*
X34736Y-4100D02*
X34736Y-3900D01*
X34736Y-3600D02*
X34736Y-3400D01*
X34736Y-4600D02*
X34736Y-4400D01*
X34736Y-5100D02*
X34736Y-4900D01*
X29736Y-1100D02*
X29736Y-900D01*
X29736Y-3100D02*
X29736Y-2900D01*
X29736Y-2600D02*
X29736Y-2400D01*
X29736Y-1600D02*
X29736Y-1400D01*
X29736Y-2100D02*
X29736Y-1900D01*
X29736Y-4100D02*
X29736Y-3900D01*
X29736Y-3600D02*
X29736Y-3400D01*
X29736Y-4600D02*
X29736Y-4400D01*
X29736Y-5100D02*
X29736Y-4900D01*
X24736Y-1100D02*
X24736Y-900D01*
X24736Y-3100D02*
X24736Y-2900D01*
X24736Y-2600D02*
X24736Y-2400D01*
X24736Y-1600D02*
X24736Y-1400D01*
X24736Y-2100D02*
X24736Y-1900D01*
X24736Y-4100D02*
X24736Y-3900D01*
X24736Y-3600D02*
X24736Y-3400D01*
X24736Y-4600D02*
X24736Y-4400D01*
X24736Y-5100D02*
X24736Y-4900D01*
X19736Y-1100D02*
X19736Y-900D01*
X19736Y-3100D02*
X19736Y-2900D01*
X19736Y-2600D02*
X19736Y-2400D01*
X19736Y-1600D02*
X19736Y-1400D01*
X19736Y-2100D02*
X19736Y-1900D01*
X19736Y-4100D02*
X19736Y-3900D01*
X19736Y-3600D02*
X19736Y-3400D01*
X19736Y-4600D02*
X19736Y-4400D01*
X19736Y-5100D02*
X19736Y-4900D01*
X14736Y-1100D02*
X14736Y-900D01*
X14736Y-3100D02*
X14736Y-2900D01*
X14736Y-2600D02*
X14736Y-2400D01*
X14736Y-1600D02*
X14736Y-1400D01*
X14736Y-2100D02*
X14736Y-1900D01*
X14736Y-4100D02*
X14736Y-3900D01*
X14736Y-3600D02*
X14736Y-3400D01*
X14736Y-4600D02*
X14736Y-4400D01*
X14736Y-5100D02*
X14736Y-4900D01*
X9736Y-1100D02*
X9736Y-900D01*
X9736Y-3100D02*
X9736Y-2900D01*
X9736Y-2600D02*
X9736Y-2400D01*
X9736Y-1600D02*
X9736Y-1400D01*
X9736Y-2100D02*
X9736Y-1900D01*
X9736Y-4100D02*
X9736Y-3900D01*
X9736Y-3600D02*
X9736Y-3400D01*
X9736Y-4600D02*
X9736Y-4400D01*
X9736Y-5100D02*
X9736Y-4900D01*
X4736Y-1100D02*
X4736Y-900D01*
X4736Y-3100D02*
X4736Y-2900D01*
X4736Y-2600D02*
X4736Y-2400D01*
X4736Y-1600D02*
X4736Y-1400D01*
X4736Y-2100D02*
X4736Y-1900D01*
X4736Y-4100D02*
X4736Y-3900D01*
X4736Y-3600D02*
X4736Y-3400D01*
X4736Y-4600D02*
X4736Y-4400D01*
X4736Y-5100D02*
X4736Y-4900D01*
X4736Y-18600D02*
X4736Y-18400D01*
X4736Y-19100D02*
X4736Y-18900D01*
X4736Y-17100D02*
X4736Y-16900D01*
X4736Y-16600D02*
X4736Y-16400D01*
X4736Y-17600D02*
X4736Y-17400D01*
X4736Y-18100D02*
X4736Y-17900D01*
X4736Y-16100D02*
X4736Y-15900D01*
X9736Y-18600D02*
X9736Y-18400D01*
X9736Y-19100D02*
X9736Y-18900D01*
X9736Y-17100D02*
X9736Y-16900D01*
X9736Y-16600D02*
X9736Y-16400D01*
X9736Y-17600D02*
X9736Y-17400D01*
X9736Y-18100D02*
X9736Y-17900D01*
X9736Y-16100D02*
X9736Y-15900D01*
X14736Y-18600D02*
X14736Y-18400D01*
X14736Y-19100D02*
X14736Y-18900D01*
X14736Y-17100D02*
X14736Y-16900D01*
X14736Y-16600D02*
X14736Y-16400D01*
X14736Y-17600D02*
X14736Y-17400D01*
X14736Y-18100D02*
X14736Y-17900D01*
X14736Y-16100D02*
X14736Y-15900D01*
X19736Y-18600D02*
X19736Y-18400D01*
X19736Y-19100D02*
X19736Y-18900D01*
X19736Y-17100D02*
X19736Y-16900D01*
X19736Y-16600D02*
X19736Y-16400D01*
X19736Y-17600D02*
X19736Y-17400D01*
X19736Y-18100D02*
X19736Y-17900D01*
X19736Y-16100D02*
X19736Y-15900D01*
X24736Y-18600D02*
X24736Y-18400D01*
X24736Y-19100D02*
X24736Y-18900D01*
X24736Y-17100D02*
X24736Y-16900D01*
X24736Y-16600D02*
X24736Y-16400D01*
X24736Y-17600D02*
X24736Y-17400D01*
X24736Y-18100D02*
X24736Y-17900D01*
X24736Y-16100D02*
X24736Y-15900D01*
X29736Y-18600D02*
X29736Y-18400D01*
X29736Y-19100D02*
X29736Y-18900D01*
X29736Y-17100D02*
X29736Y-16900D01*
X29736Y-16600D02*
X29736Y-16400D01*
X29736Y-17600D02*
X29736Y-17400D01*
X29736Y-18100D02*
X29736Y-17900D01*
X29736Y-16100D02*
X29736Y-15900D01*
X34736Y-18600D02*
X34736Y-18400D01*
X34736Y-19100D02*
X34736Y-18900D01*
X34736Y-17100D02*
X34736Y-16900D01*
X34736Y-16600D02*
X34736Y-16400D01*
X34736Y-17600D02*
X34736Y-17400D01*
X34736Y-18100D02*
X34736Y-17900D01*
X34736Y-16100D02*
X34736Y-15900D01*
G54D10*
X28772Y-21531D02*
X28772Y-20430D01*
G54D13*
X34704Y-20269D02*
X34721Y-20252D01*
X34755Y-20235D01*
X34839Y-20235D01*
X34873Y-20252D01*
X34890Y-20269D01*
X34907Y-20303D01*
X34907Y-20337D01*
X34890Y-20387D01*
X34688Y-20590D01*
X34907Y-20590D01*
G54D10*
X33771Y-21531D02*
X33771Y-20744D01*
X32772Y-21531D02*
X32772Y-20430D01*
X31772Y-21531D02*
X31772Y-20430D01*
X30772Y-21531D02*
X30772Y-20893D01*
X27772Y-21532D02*
X27772Y-21036D01*
G54D14*
X12571Y-19800D02*
X12571Y-19875D01*
X12496Y-19725D02*
X12571Y-19800D01*
X12871Y-19800D02*
X12871Y-19875D01*
X12946Y-19725D02*
X12871Y-19800D01*
X12796Y-19950D02*
X12646Y-19950D01*
X12796Y-19875D02*
X12796Y-20100D01*
X12646Y-20025D02*
X12646Y-19875D01*
X12496Y-20100D02*
X12946Y-20100D01*
X13021Y-19950D02*
X12946Y-19950D01*
X13021Y-20025D02*
X13021Y-19950D01*
X12421Y-19950D02*
X12496Y-19950D01*
X12421Y-20025D02*
X12421Y-19950D01*
X12571Y-20250D02*
X12646Y-20250D01*
X12496Y-20175D02*
X12571Y-20250D01*
X12496Y-19875D02*
X12496Y-20175D01*
X12946Y-19875D02*
X12496Y-19875D01*
X12946Y-20175D02*
X12946Y-19875D01*
X12871Y-20250D02*
X12946Y-20175D01*
X12796Y-20250D02*
X12871Y-20250D01*
X13096Y-20025D02*
X13096Y-20175D01*
X12346Y-20025D02*
X13096Y-20025D01*
X12346Y-20175D02*
X12346Y-20025D01*
G54D15*
X10734Y-17339D02*
X10734Y-17142D01*
X10847Y-17339D02*
X10762Y-17226D01*
X10847Y-17142D02*
X10734Y-17254D01*
X32734Y-19339D02*
X32734Y-19142D01*
X32847Y-19339D02*
X32762Y-19226D01*
X32847Y-19142D02*
X32734Y-19254D01*
G54D10*
X34172Y-21335D02*
X34187Y-21350D01*
X34202Y-21395D01*
X34202Y-21425D01*
X34187Y-21470D01*
X34157Y-21500D01*
X34127Y-21515D01*
X34067Y-21530D01*
X34022Y-21530D01*
X33962Y-21515D01*
X33932Y-21500D01*
X33902Y-21470D01*
X33887Y-21425D01*
X33887Y-21395D01*
X33902Y-21350D01*
X33917Y-21335D01*
X34187Y-21215D02*
X34202Y-21170D01*
X34202Y-21095D01*
X34187Y-21065D01*
X34172Y-21050D01*
X34142Y-21035D01*
X34112Y-21035D01*
X34082Y-21050D01*
X34067Y-21065D01*
X34052Y-21095D01*
X34037Y-21155D01*
X34022Y-21185D01*
X34007Y-21200D01*
X33977Y-21215D01*
X33947Y-21215D01*
X33917Y-21200D01*
X33902Y-21185D01*
X33887Y-21155D01*
X33887Y-21080D01*
X33902Y-21035D01*
X33917Y-20915D02*
X33902Y-20900D01*
X33887Y-20870D01*
X33887Y-20795D01*
X33902Y-20765D01*
X33917Y-20750D01*
X33947Y-20735D01*
X33977Y-20735D01*
X34022Y-20750D01*
X34202Y-20930D01*
X34202Y-20735D01*
X33189Y-21531D02*
X33204Y-21491D01*
X33204Y-21423D01*
X33189Y-21395D01*
X33174Y-21382D01*
X33144Y-21368D01*
X33114Y-21368D01*
X33084Y-21382D01*
X33069Y-21395D01*
X33054Y-21423D01*
X33039Y-21477D01*
X33024Y-21504D01*
X33009Y-21518D01*
X32979Y-21531D01*
X32949Y-21531D01*
X32919Y-21518D01*
X32904Y-21504D01*
X32889Y-21477D01*
X32889Y-21409D01*
X32904Y-21368D01*
X33204Y-21110D02*
X33204Y-21246D01*
X32889Y-21246D01*
X32889Y-21056D02*
X32889Y-20893D01*
X33204Y-20974D02*
X32889Y-20974D01*
X33189Y-20811D02*
X33204Y-20770D01*
X33204Y-20702D01*
X33189Y-20675D01*
X33174Y-20662D01*
X33144Y-20648D01*
X33114Y-20648D01*
X33084Y-20662D01*
X33069Y-20675D01*
X33054Y-20702D01*
X33039Y-20757D01*
X33024Y-20784D01*
X33009Y-20797D01*
X32979Y-20811D01*
X32949Y-20811D01*
X32919Y-20797D01*
X32904Y-20784D01*
X32889Y-20757D01*
X32889Y-20689D01*
X32904Y-20648D01*
X33204Y-20390D02*
X33204Y-20526D01*
X32889Y-20526D01*
X32204Y-21351D02*
X32054Y-21456D01*
X32204Y-21531D02*
X31889Y-21531D01*
X31889Y-21411D01*
X31904Y-21381D01*
X31919Y-21366D01*
X31949Y-21351D01*
X31994Y-21351D01*
X32024Y-21366D01*
X32039Y-21381D01*
X32054Y-21411D01*
X32054Y-21531D01*
X32039Y-21111D02*
X32039Y-21216D01*
X32204Y-21216D02*
X31889Y-21216D01*
X31889Y-21066D01*
X32189Y-20961D02*
X32204Y-20916D01*
X32204Y-20841D01*
X32189Y-20811D01*
X32174Y-20796D01*
X32144Y-20781D01*
X32114Y-20781D01*
X32084Y-20796D01*
X32069Y-20811D01*
X32054Y-20841D01*
X32039Y-20901D01*
X32024Y-20931D01*
X32009Y-20946D01*
X31979Y-20961D01*
X31949Y-20961D01*
X31919Y-20946D01*
X31904Y-20931D01*
X31889Y-20901D01*
X31889Y-20826D01*
X31904Y-20781D01*
X32204Y-20646D02*
X31889Y-20646D01*
X32039Y-20646D02*
X32039Y-20466D01*
X32204Y-20466D02*
X31889Y-20466D01*
X31204Y-21532D02*
X30889Y-21532D01*
X31204Y-21382D02*
X30889Y-21382D01*
X31204Y-21202D01*
X30889Y-21202D01*
X30889Y-21097D02*
X30889Y-20917D01*
X31204Y-21007D02*
X30889Y-21007D01*
X29204Y-21531D02*
X28889Y-21531D01*
X29114Y-21433D01*
X28889Y-21335D01*
X29204Y-21335D01*
X29039Y-21194D02*
X29039Y-21096D01*
X29204Y-21053D02*
X29204Y-21194D01*
X28889Y-21194D01*
X28889Y-21053D01*
X29204Y-20758D02*
X29054Y-20857D01*
X29204Y-20927D02*
X28889Y-20927D01*
X28889Y-20814D01*
X28904Y-20786D01*
X28919Y-20772D01*
X28949Y-20758D01*
X28994Y-20758D01*
X29024Y-20772D01*
X29039Y-20786D01*
X29054Y-20814D01*
X29054Y-20927D01*
X29234Y-20435D02*
X29219Y-20463D01*
X29189Y-20491D01*
X29144Y-20533D01*
X29129Y-20561D01*
X29129Y-20589D01*
X29204Y-20575D02*
X29189Y-20603D01*
X29159Y-20632D01*
X29099Y-20646D01*
X28994Y-20646D01*
X28934Y-20632D01*
X28904Y-20603D01*
X28889Y-20575D01*
X28889Y-20519D01*
X28904Y-20491D01*
X28934Y-20463D01*
X28994Y-20449D01*
X29099Y-20449D01*
X29159Y-20463D01*
X29189Y-20491D01*
X29204Y-20519D01*
X29204Y-20575D01*
X30039Y-21427D02*
X30054Y-21382D01*
X30069Y-21367D01*
X30099Y-21352D01*
X30144Y-21352D01*
X30174Y-21367D01*
X30189Y-21382D01*
X30204Y-21412D01*
X30204Y-21532D01*
X29889Y-21532D01*
X29889Y-21427D01*
X29904Y-21397D01*
X29919Y-21382D01*
X29949Y-21367D01*
X29979Y-21367D01*
X30009Y-21382D01*
X30024Y-21397D01*
X30039Y-21427D01*
X30039Y-21532D01*
X29889Y-21217D02*
X30144Y-21217D01*
X30174Y-21202D01*
X30189Y-21187D01*
X30204Y-21157D01*
X30204Y-21097D01*
X30189Y-21067D01*
X30174Y-21052D01*
X30144Y-21037D01*
X29889Y-21037D01*
X30189Y-20902D02*
X30204Y-20857D01*
X30204Y-20782D01*
X30189Y-20752D01*
X30174Y-20737D01*
X30144Y-20722D01*
X30114Y-20722D01*
X30084Y-20737D01*
X30069Y-20752D01*
X30054Y-20782D01*
X30039Y-20842D01*
X30024Y-20872D01*
X30009Y-20887D01*
X29979Y-20902D01*
X29949Y-20902D01*
X29919Y-20887D01*
X29904Y-20872D01*
X29889Y-20842D01*
X29889Y-20767D01*
X29904Y-20722D01*
X30204Y-20587D02*
X29889Y-20587D01*
X29889Y-20512D01*
X29904Y-20467D01*
X29934Y-20437D01*
X29964Y-20422D01*
X30024Y-20407D01*
X30069Y-20407D01*
X30129Y-20422D01*
X30159Y-20437D01*
X30189Y-20467D01*
X30204Y-20512D01*
X30204Y-20587D01*
X28204Y-21350D02*
X28054Y-21455D01*
X28204Y-21530D02*
X27889Y-21530D01*
X27889Y-21410D01*
X27904Y-21380D01*
X27919Y-21365D01*
X27949Y-21350D01*
X27994Y-21350D01*
X28024Y-21365D01*
X28039Y-21380D01*
X28054Y-21410D01*
X28054Y-21530D01*
X28204Y-21215D02*
X27889Y-21215D01*
X27889Y-21140D01*
X27904Y-21095D01*
X27934Y-21065D01*
X27964Y-21050D01*
X28024Y-21035D01*
X28069Y-21035D01*
X28129Y-21050D01*
X28159Y-21065D01*
X28189Y-21095D01*
X28204Y-21140D01*
X28204Y-21215D01*
X27204Y-21531D02*
X26889Y-21531D01*
X27204Y-21351D01*
X26889Y-21351D01*
X27174Y-21201D02*
X27189Y-21186D01*
X27204Y-21201D01*
X27189Y-21216D01*
X27174Y-21201D01*
X27204Y-21201D01*
X27174Y-20871D02*
X27189Y-20886D01*
X27204Y-20931D01*
X27204Y-20961D01*
X27189Y-21006D01*
X27159Y-21036D01*
X27129Y-21051D01*
X27069Y-21066D01*
X27024Y-21066D01*
X26964Y-21051D01*
X26934Y-21036D01*
X26904Y-21006D01*
X26889Y-20961D01*
X26889Y-20931D01*
X26904Y-20886D01*
X26919Y-20871D01*
X26114Y-21501D02*
X26114Y-21351D01*
X26204Y-21531D02*
X25889Y-21426D01*
X26204Y-21321D01*
X26204Y-21051D02*
X26204Y-21231D01*
X26204Y-21141D02*
X25889Y-21141D01*
X25934Y-21171D01*
X25964Y-21201D01*
X25979Y-21231D01*
X25889Y-20766D02*
X25889Y-20916D01*
X26039Y-20931D01*
X26024Y-20916D01*
X26009Y-20886D01*
X26009Y-20811D01*
X26024Y-20781D01*
X26039Y-20766D01*
X26069Y-20751D01*
X26144Y-20751D01*
X26174Y-20766D01*
X26189Y-20781D01*
X26204Y-20811D01*
X26204Y-20886D01*
X26189Y-20916D01*
X26174Y-20931D01*
X25114Y-21500D02*
X25114Y-21350D01*
X25204Y-21530D02*
X24889Y-21425D01*
X25204Y-21320D01*
X25204Y-21050D02*
X25204Y-21230D01*
X25204Y-21140D02*
X24889Y-21140D01*
X24934Y-21170D01*
X24964Y-21200D01*
X24979Y-21230D01*
X24889Y-20855D02*
X24889Y-20825D01*
X24904Y-20795D01*
X24919Y-20780D01*
X24949Y-20765D01*
X25009Y-20750D01*
X25084Y-20750D01*
X25144Y-20765D01*
X25174Y-20780D01*
X25189Y-20795D01*
X25204Y-20825D01*
X25204Y-20855D01*
X25189Y-20885D01*
X25174Y-20900D01*
X25144Y-20915D01*
X25084Y-20930D01*
X25009Y-20930D01*
X24949Y-20915D01*
X24919Y-20900D01*
X24904Y-20885D01*
X24889Y-20855D01*
X24114Y-21500D02*
X24114Y-21350D01*
X24204Y-21530D02*
X23889Y-21425D01*
X24204Y-21320D01*
X23889Y-21080D02*
X23889Y-21140D01*
X23904Y-21170D01*
X23919Y-21185D01*
X23964Y-21215D01*
X24024Y-21230D01*
X24144Y-21230D01*
X24174Y-21215D01*
X24189Y-21200D01*
X24204Y-21170D01*
X24204Y-21110D01*
X24189Y-21080D01*
X24174Y-21065D01*
X24144Y-21050D01*
X24069Y-21050D01*
X24039Y-21065D01*
X24024Y-21080D01*
X24009Y-21110D01*
X24009Y-21170D01*
X24024Y-21200D01*
X24039Y-21215D01*
X24069Y-21230D01*
X23113Y-21500D02*
X23113Y-21350D01*
X23203Y-21530D02*
X22888Y-21425D01*
X23203Y-21320D01*
X23023Y-21170D02*
X23008Y-21200D01*
X22993Y-21215D01*
X22963Y-21230D01*
X22948Y-21230D01*
X22918Y-21215D01*
X22903Y-21200D01*
X22888Y-21170D01*
X22888Y-21110D01*
X22903Y-21080D01*
X22918Y-21065D01*
X22948Y-21050D01*
X22963Y-21050D01*
X22993Y-21065D01*
X23008Y-21080D01*
X23023Y-21110D01*
X23023Y-21170D01*
X23038Y-21200D01*
X23053Y-21215D01*
X23083Y-21230D01*
X23143Y-21230D01*
X23173Y-21215D01*
X23188Y-21200D01*
X23203Y-21170D01*
X23203Y-21110D01*
X23188Y-21080D01*
X23173Y-21065D01*
X23143Y-21050D01*
X23083Y-21050D01*
X23053Y-21065D01*
X23038Y-21080D01*
X23023Y-21110D01*
X22114Y-21500D02*
X22114Y-21350D01*
X22204Y-21530D02*
X21889Y-21425D01*
X22204Y-21320D01*
X22204Y-21050D02*
X22204Y-21230D01*
X22204Y-21140D02*
X21889Y-21140D01*
X21934Y-21170D01*
X21964Y-21200D01*
X21979Y-21230D01*
X21889Y-20945D02*
X21889Y-20750D01*
X22009Y-20855D01*
X22009Y-20810D01*
X22024Y-20780D01*
X22039Y-20765D01*
X22069Y-20750D01*
X22144Y-20750D01*
X22174Y-20765D01*
X22189Y-20780D01*
X22204Y-20810D01*
X22204Y-20900D01*
X22189Y-20930D01*
X22174Y-20945D01*
X21114Y-21500D02*
X21114Y-21350D01*
X21204Y-21530D02*
X20889Y-21425D01*
X21204Y-21320D01*
X20889Y-21155D02*
X20889Y-21125D01*
X20904Y-21095D01*
X20919Y-21080D01*
X20949Y-21065D01*
X21009Y-21050D01*
X21084Y-21050D01*
X21144Y-21065D01*
X21174Y-21080D01*
X21189Y-21095D01*
X21204Y-21125D01*
X21204Y-21155D01*
X21189Y-21185D01*
X21174Y-21200D01*
X21144Y-21215D01*
X21084Y-21230D01*
X21009Y-21230D01*
X20949Y-21215D01*
X20919Y-21200D01*
X20904Y-21185D01*
X20889Y-21155D01*
X20114Y-21500D02*
X20114Y-21350D01*
X20204Y-21530D02*
X19889Y-21425D01*
X20204Y-21320D01*
X19919Y-21230D02*
X19904Y-21215D01*
X19889Y-21185D01*
X19889Y-21110D01*
X19904Y-21080D01*
X19919Y-21065D01*
X19949Y-21050D01*
X19979Y-21050D01*
X20024Y-21065D01*
X20204Y-21245D01*
X20204Y-21050D01*
X19114Y-21501D02*
X19114Y-21351D01*
X19204Y-21531D02*
X18889Y-21426D01*
X19204Y-21321D01*
X18994Y-21081D02*
X19204Y-21081D01*
X18874Y-21156D02*
X19099Y-21231D01*
X19099Y-21036D01*
X18204Y-21531D02*
X17889Y-21531D01*
X17889Y-21456D01*
X17904Y-21411D01*
X17934Y-21381D01*
X17964Y-21366D01*
X18024Y-21351D01*
X18069Y-21351D01*
X18129Y-21366D01*
X18159Y-21381D01*
X18189Y-21411D01*
X18204Y-21456D01*
X18204Y-21531D01*
X17889Y-21156D02*
X17889Y-21126D01*
X17904Y-21096D01*
X17919Y-21081D01*
X17949Y-21066D01*
X18009Y-21051D01*
X18084Y-21051D01*
X18144Y-21066D01*
X18174Y-21081D01*
X18189Y-21096D01*
X18204Y-21126D01*
X18204Y-21156D01*
X18189Y-21186D01*
X18174Y-21201D01*
X18144Y-21216D01*
X18084Y-21231D01*
X18009Y-21231D01*
X17949Y-21216D01*
X17919Y-21201D01*
X17904Y-21186D01*
X17889Y-21156D01*
X17204Y-21531D02*
X16889Y-21531D01*
X16889Y-21456D01*
X16904Y-21411D01*
X16934Y-21381D01*
X16964Y-21366D01*
X17024Y-21351D01*
X17069Y-21351D01*
X17129Y-21366D01*
X17159Y-21381D01*
X17189Y-21411D01*
X17204Y-21456D01*
X17204Y-21531D01*
X16919Y-21231D02*
X16904Y-21216D01*
X16889Y-21186D01*
X16889Y-21111D01*
X16904Y-21081D01*
X16919Y-21066D01*
X16949Y-21051D01*
X16979Y-21051D01*
X17024Y-21066D01*
X17204Y-21246D01*
X17204Y-21051D01*
X16204Y-21531D02*
X15889Y-21531D01*
X15889Y-21456D01*
X15904Y-21411D01*
X15934Y-21381D01*
X15964Y-21366D01*
X16024Y-21351D01*
X16069Y-21351D01*
X16129Y-21366D01*
X16159Y-21381D01*
X16189Y-21411D01*
X16204Y-21456D01*
X16204Y-21531D01*
X15994Y-21081D02*
X16204Y-21081D01*
X15874Y-21156D02*
X16099Y-21231D01*
X16099Y-21036D01*
X15204Y-21531D02*
X14889Y-21531D01*
X14889Y-21456D01*
X14904Y-21411D01*
X14934Y-21381D01*
X14964Y-21366D01*
X15024Y-21351D01*
X15069Y-21351D01*
X15129Y-21366D01*
X15159Y-21381D01*
X15189Y-21411D01*
X15204Y-21456D01*
X15204Y-21531D01*
X14889Y-21081D02*
X14889Y-21141D01*
X14904Y-21171D01*
X14919Y-21186D01*
X14964Y-21216D01*
X15024Y-21231D01*
X15144Y-21231D01*
X15174Y-21216D01*
X15189Y-21201D01*
X15204Y-21171D01*
X15204Y-21111D01*
X15189Y-21081D01*
X15174Y-21066D01*
X15144Y-21051D01*
X15069Y-21051D01*
X15039Y-21066D01*
X15024Y-21081D01*
X15009Y-21111D01*
X15009Y-21171D01*
X15024Y-21201D01*
X15039Y-21216D01*
X15069Y-21231D01*
X14175Y-21370D02*
X14190Y-21383D01*
X14205Y-21420D01*
X14205Y-21444D01*
X14190Y-21482D01*
X14160Y-21506D01*
X14130Y-21519D01*
X14070Y-21531D01*
X14025Y-21531D01*
X13965Y-21519D01*
X13935Y-21506D01*
X13905Y-21482D01*
X13890Y-21444D01*
X13890Y-21420D01*
X13905Y-21383D01*
X13920Y-21370D01*
X14205Y-21135D02*
X14205Y-21259D01*
X13890Y-21259D01*
X13890Y-20999D02*
X13890Y-20950D01*
X13905Y-20925D01*
X13935Y-20900D01*
X13995Y-20888D01*
X14100Y-20888D01*
X14160Y-20900D01*
X14190Y-20925D01*
X14205Y-20950D01*
X14205Y-20999D01*
X14190Y-21024D01*
X14160Y-21049D01*
X14100Y-21061D01*
X13995Y-21061D01*
X13935Y-21049D01*
X13905Y-21024D01*
X13890Y-20999D01*
X14175Y-20628D02*
X14190Y-20640D01*
X14205Y-20677D01*
X14205Y-20702D01*
X14190Y-20739D01*
X14160Y-20764D01*
X14130Y-20776D01*
X14070Y-20789D01*
X14025Y-20789D01*
X13965Y-20776D01*
X13935Y-20764D01*
X13905Y-20739D01*
X13890Y-20702D01*
X13890Y-20677D01*
X13905Y-20640D01*
X13920Y-20628D01*
X14205Y-20516D02*
X13890Y-20516D01*
X14205Y-20368D02*
X14025Y-20479D01*
X13890Y-20368D02*
X14070Y-20516D01*
X11084Y-21530D02*
X11084Y-21290D01*
X11204Y-21410D02*
X10964Y-21410D01*
X11204Y-20975D02*
X11204Y-21155D01*
X11204Y-21065D02*
X10889Y-21065D01*
X10934Y-21095D01*
X10964Y-21125D01*
X10979Y-21155D01*
X10919Y-20855D02*
X10904Y-20840D01*
X10889Y-20810D01*
X10889Y-20735D01*
X10904Y-20705D01*
X10919Y-20690D01*
X10949Y-20675D01*
X10979Y-20675D01*
X11024Y-20690D01*
X11204Y-20870D01*
X11204Y-20675D01*
X10889Y-20585D02*
X11204Y-20480D01*
X10889Y-20375D01*
G54D16*
X33536Y-18500D02*
G75*
G03X33536Y-18500I-300J0D01*
G74*
G01*
X11536Y-16500D02*
G75*
G03X11536Y-16500I-300J0D01*
G74*
G01*
X33236Y-18500D02*
X33736Y-18000D01*
X33236Y-18500D02*
X33736Y-19000D01*
X33236Y-18500D02*
X32736Y-19000D01*
X33236Y-18500D02*
X32736Y-18000D01*
X11236Y-16500D02*
X10736Y-16000D01*
X11236Y-16500D02*
X10736Y-17000D01*
X11236Y-16500D02*
X11736Y-17000D01*
X11236Y-16500D02*
X11736Y-16000D01*
G54D10*
X10084Y-21531D02*
X10084Y-21291D01*
X10204Y-20976D02*
X10204Y-21156D01*
X10204Y-21066D02*
X9889Y-21066D01*
X9934Y-21096D01*
X9964Y-21126D01*
X9979Y-21156D01*
X9919Y-20856D02*
X9904Y-20841D01*
X9889Y-20811D01*
X9889Y-20736D01*
X9904Y-20706D01*
X9919Y-20691D01*
X9949Y-20676D01*
X9979Y-20676D01*
X10024Y-20691D01*
X10204Y-20871D01*
X10204Y-20676D01*
X9889Y-20586D02*
X10204Y-20481D01*
X9889Y-20376D01*
M02*
