G04 (created by PCBNEW (2013-09-28 BZR 4356)-product) date 12/11/2013 13:19:40*
%MOIN*%
G04 Gerber Fmt 3.4, Leading zero omitted, Abs format*
%FSLAX34Y34*%
G01*
G70*
G90*
G04 APERTURE LIST*
%ADD10C,0.005906*%
%ADD11C,0.071811*%
%ADD12C,0.060000*%
%ADD13O,0.066929X0.281496*%
%ADD14R,0.066929X0.118110*%
%ADD15C,0.035000*%
%ADD16C,0.025000*%
%ADD17C,0.010000*%
G04 APERTURE END LIST*
G54D10*
G54D11*
X32236Y-19000D03*
X30236Y-18000D03*
X32236Y-17000D03*
X31236Y-17000D03*
X30236Y-17000D03*
X30236Y-16000D03*
X31236Y-16000D03*
X32236Y-16000D03*
X33236Y-16000D03*
X34236Y-16000D03*
G54D12*
X11236Y-17000D03*
X11236Y-16000D03*
G54D11*
X11236Y-18000D03*
X12236Y-16000D03*
X12236Y-17000D03*
X12236Y-18000D03*
X10236Y-16000D03*
X10236Y-17000D03*
X10236Y-18000D03*
X13236Y-18000D03*
X13236Y-17000D03*
X13236Y-16000D03*
X14236Y-17000D03*
X14236Y-18000D03*
X14236Y-16000D03*
X26236Y-16000D03*
X25236Y-16000D03*
X29236Y-16000D03*
X29236Y-18000D03*
X29236Y-17000D03*
X28236Y-16000D03*
X27236Y-16000D03*
X28236Y-17000D03*
X27236Y-17000D03*
X28236Y-18000D03*
X27236Y-18000D03*
X26236Y-17000D03*
X25236Y-17000D03*
X26236Y-18000D03*
X25236Y-18000D03*
X16236Y-16000D03*
X15236Y-16000D03*
X19236Y-16000D03*
X19236Y-18000D03*
X19236Y-17000D03*
X18236Y-16000D03*
X17236Y-16000D03*
X18236Y-17000D03*
X17236Y-17000D03*
X18236Y-18000D03*
X17236Y-18000D03*
X16236Y-17000D03*
X15236Y-17000D03*
X16236Y-18000D03*
X15236Y-18000D03*
X21236Y-16000D03*
X20236Y-16000D03*
X24236Y-16000D03*
X24236Y-18000D03*
X24236Y-17000D03*
X23236Y-16000D03*
X22236Y-16000D03*
X23236Y-17000D03*
X22236Y-17000D03*
X23236Y-18000D03*
X22236Y-18000D03*
X21236Y-17000D03*
X20236Y-17000D03*
X21236Y-18000D03*
X20236Y-18000D03*
X6236Y-19000D03*
X7236Y-19000D03*
X8236Y-19000D03*
X9236Y-19000D03*
X8236Y-18000D03*
X9236Y-18000D03*
X8236Y-17000D03*
X9236Y-17000D03*
X6236Y-18000D03*
X7236Y-16000D03*
X6236Y-16000D03*
X6236Y-17000D03*
X7236Y-18000D03*
X7236Y-17000D03*
X9236Y-16000D03*
X8236Y-16000D03*
X5236Y-17000D03*
X5236Y-16000D03*
X5236Y-18000D03*
X5236Y-19000D03*
X5236Y-7000D03*
X5236Y-6000D03*
X3236Y-6000D03*
X4236Y-6000D03*
X2236Y-7000D03*
X2236Y-8000D03*
X1236Y-7000D03*
X1236Y-6000D03*
X2236Y-6000D03*
X1236Y-8000D03*
X5236Y-8000D03*
X5236Y-10000D03*
X5236Y-9000D03*
X4236Y-7000D03*
X3236Y-7000D03*
X4236Y-8000D03*
X3236Y-8000D03*
X4236Y-9000D03*
X3236Y-9000D03*
X4236Y-10000D03*
X3236Y-10000D03*
X2236Y-9000D03*
X1236Y-9000D03*
X2236Y-10000D03*
X1236Y-10000D03*
X1236Y-5000D03*
X2236Y-5000D03*
X1236Y-4000D03*
X2236Y-4000D03*
X3236Y-5000D03*
X4236Y-5000D03*
X3236Y-4000D03*
X4236Y-4000D03*
X3236Y-3000D03*
X4236Y-3000D03*
X3236Y-2000D03*
X4236Y-2000D03*
X5236Y-4000D03*
X5236Y-5000D03*
X5236Y-3000D03*
X1236Y-3000D03*
X2236Y-1000D03*
X1236Y-1000D03*
X1236Y-2000D03*
X2236Y-3000D03*
X2236Y-2000D03*
X4236Y-1000D03*
X3236Y-1000D03*
X5236Y-1000D03*
X5236Y-2000D03*
X1236Y-15000D03*
X2236Y-15000D03*
X1236Y-14000D03*
X2236Y-14000D03*
X3236Y-15000D03*
X4236Y-15000D03*
X3236Y-14000D03*
X4236Y-14000D03*
X3236Y-13000D03*
X4236Y-13000D03*
X3236Y-12000D03*
X4236Y-12000D03*
X5236Y-14000D03*
X5236Y-15000D03*
X5236Y-13000D03*
X1236Y-13000D03*
X2236Y-11000D03*
X1236Y-11000D03*
X1236Y-12000D03*
X2236Y-13000D03*
X2236Y-12000D03*
X4236Y-11000D03*
X3236Y-11000D03*
X5236Y-11000D03*
X5236Y-12000D03*
X8236Y-11000D03*
X9236Y-11000D03*
X7236Y-12000D03*
X7236Y-13000D03*
X6236Y-12000D03*
X6236Y-11000D03*
X7236Y-11000D03*
X6236Y-13000D03*
X9236Y-12000D03*
X8236Y-12000D03*
X9236Y-13000D03*
X8236Y-13000D03*
X9236Y-14000D03*
X8236Y-14000D03*
X9236Y-15000D03*
X8236Y-15000D03*
X7236Y-14000D03*
X6236Y-14000D03*
X7236Y-15000D03*
X6236Y-15000D03*
X8236Y-1000D03*
X9236Y-1000D03*
X7236Y-2000D03*
X7236Y-3000D03*
X6236Y-2000D03*
X6236Y-1000D03*
X7236Y-1000D03*
X6236Y-3000D03*
X9236Y-2000D03*
X8236Y-2000D03*
X9236Y-3000D03*
X8236Y-3000D03*
X9236Y-4000D03*
X8236Y-4000D03*
X9236Y-5000D03*
X8236Y-5000D03*
X7236Y-4000D03*
X6236Y-4000D03*
X7236Y-5000D03*
X6236Y-5000D03*
X6236Y-10000D03*
X7236Y-10000D03*
X6236Y-9000D03*
X7236Y-9000D03*
X8236Y-10000D03*
X9236Y-10000D03*
X8236Y-9000D03*
X9236Y-9000D03*
X8236Y-8000D03*
X9236Y-8000D03*
X8236Y-7000D03*
X9236Y-7000D03*
X6236Y-8000D03*
X7236Y-6000D03*
X6236Y-6000D03*
X6236Y-7000D03*
X7236Y-8000D03*
X7236Y-7000D03*
X9236Y-6000D03*
X8236Y-6000D03*
X20236Y-15000D03*
X21236Y-15000D03*
X20236Y-14000D03*
X21236Y-14000D03*
X22236Y-15000D03*
X23236Y-15000D03*
X22236Y-14000D03*
X23236Y-14000D03*
X22236Y-13000D03*
X23236Y-13000D03*
X22236Y-12000D03*
X23236Y-12000D03*
X24236Y-14000D03*
X24236Y-15000D03*
X24236Y-13000D03*
X20236Y-13000D03*
X21236Y-11000D03*
X20236Y-11000D03*
X20236Y-12000D03*
X21236Y-13000D03*
X21236Y-12000D03*
X23236Y-11000D03*
X22236Y-11000D03*
X24236Y-11000D03*
X24236Y-12000D03*
X19236Y-7000D03*
X19236Y-6000D03*
X17236Y-6000D03*
X18236Y-6000D03*
X16236Y-7000D03*
X16236Y-8000D03*
X15236Y-7000D03*
X15236Y-6000D03*
X16236Y-6000D03*
X15236Y-8000D03*
X19236Y-8000D03*
X19236Y-10000D03*
X19236Y-9000D03*
X18236Y-7000D03*
X17236Y-7000D03*
X18236Y-8000D03*
X17236Y-8000D03*
X18236Y-9000D03*
X17236Y-9000D03*
X18236Y-10000D03*
X17236Y-10000D03*
X16236Y-9000D03*
X15236Y-9000D03*
X16236Y-10000D03*
X15236Y-10000D03*
X20236Y-10000D03*
X21236Y-10000D03*
X20236Y-9000D03*
X21236Y-9000D03*
X22236Y-10000D03*
X23236Y-10000D03*
X22236Y-9000D03*
X23236Y-9000D03*
X22236Y-8000D03*
X23236Y-8000D03*
X22236Y-7000D03*
X23236Y-7000D03*
X24236Y-9000D03*
X24236Y-10000D03*
X24236Y-8000D03*
X20236Y-8000D03*
X21236Y-6000D03*
X20236Y-6000D03*
X20236Y-7000D03*
X21236Y-8000D03*
X21236Y-7000D03*
X23236Y-6000D03*
X22236Y-6000D03*
X24236Y-6000D03*
X24236Y-7000D03*
X24236Y-2000D03*
X24236Y-1000D03*
X22236Y-1000D03*
X23236Y-1000D03*
X21236Y-2000D03*
X21236Y-3000D03*
X20236Y-2000D03*
X20236Y-1000D03*
X21236Y-1000D03*
X20236Y-3000D03*
X24236Y-3000D03*
X24236Y-5000D03*
X24236Y-4000D03*
X23236Y-2000D03*
X22236Y-2000D03*
X23236Y-3000D03*
X22236Y-3000D03*
X23236Y-4000D03*
X22236Y-4000D03*
X23236Y-5000D03*
X22236Y-5000D03*
X21236Y-4000D03*
X20236Y-4000D03*
X21236Y-5000D03*
X20236Y-5000D03*
X15236Y-5000D03*
X16236Y-5000D03*
X15236Y-4000D03*
X16236Y-4000D03*
X17236Y-5000D03*
X18236Y-5000D03*
X17236Y-4000D03*
X18236Y-4000D03*
X17236Y-3000D03*
X18236Y-3000D03*
X17236Y-2000D03*
X18236Y-2000D03*
X19236Y-4000D03*
X19236Y-5000D03*
X19236Y-3000D03*
X15236Y-3000D03*
X16236Y-1000D03*
X15236Y-1000D03*
X15236Y-2000D03*
X16236Y-3000D03*
X16236Y-2000D03*
X18236Y-1000D03*
X17236Y-1000D03*
X19236Y-1000D03*
X19236Y-2000D03*
X15236Y-15000D03*
X16236Y-15000D03*
X15236Y-14000D03*
X16236Y-14000D03*
X17236Y-15000D03*
X18236Y-15000D03*
X17236Y-14000D03*
X18236Y-14000D03*
X17236Y-13000D03*
X18236Y-13000D03*
X17236Y-12000D03*
X18236Y-12000D03*
X19236Y-14000D03*
X19236Y-15000D03*
X19236Y-13000D03*
X15236Y-13000D03*
X16236Y-11000D03*
X15236Y-11000D03*
X15236Y-12000D03*
X16236Y-13000D03*
X16236Y-12000D03*
X18236Y-11000D03*
X17236Y-11000D03*
X19236Y-11000D03*
X19236Y-12000D03*
X14236Y-12000D03*
X14236Y-11000D03*
X12236Y-11000D03*
X13236Y-11000D03*
X11236Y-12000D03*
X11236Y-13000D03*
X10236Y-12000D03*
X10236Y-11000D03*
X11236Y-11000D03*
X10236Y-13000D03*
X14236Y-13000D03*
X14236Y-15000D03*
X14236Y-14000D03*
X13236Y-12000D03*
X12236Y-12000D03*
X13236Y-13000D03*
X12236Y-13000D03*
X13236Y-14000D03*
X12236Y-14000D03*
X13236Y-15000D03*
X12236Y-15000D03*
X11236Y-14000D03*
X10236Y-14000D03*
X11236Y-15000D03*
X10236Y-15000D03*
X14236Y-2000D03*
X14236Y-1000D03*
X12236Y-1000D03*
X13236Y-1000D03*
X11236Y-2000D03*
X11236Y-3000D03*
X10236Y-2000D03*
X10236Y-1000D03*
X11236Y-1000D03*
X10236Y-3000D03*
X14236Y-3000D03*
X14236Y-5000D03*
X14236Y-4000D03*
X13236Y-2000D03*
X12236Y-2000D03*
X13236Y-3000D03*
X12236Y-3000D03*
X13236Y-4000D03*
X12236Y-4000D03*
X13236Y-5000D03*
X12236Y-5000D03*
X11236Y-4000D03*
X10236Y-4000D03*
X11236Y-5000D03*
X10236Y-5000D03*
X10236Y-10000D03*
X11236Y-10000D03*
X10236Y-9000D03*
X11236Y-9000D03*
X12236Y-10000D03*
X13236Y-10000D03*
X12236Y-9000D03*
X13236Y-9000D03*
X12236Y-8000D03*
X13236Y-8000D03*
X12236Y-7000D03*
X13236Y-7000D03*
X14236Y-9000D03*
X14236Y-10000D03*
X14236Y-8000D03*
X10236Y-8000D03*
X11236Y-6000D03*
X10236Y-6000D03*
X10236Y-7000D03*
X11236Y-8000D03*
X11236Y-7000D03*
X13236Y-6000D03*
X12236Y-6000D03*
X14236Y-6000D03*
X14236Y-7000D03*
X29236Y-7000D03*
X29236Y-6000D03*
X27236Y-6000D03*
X28236Y-6000D03*
X26236Y-7000D03*
X26236Y-8000D03*
X25236Y-7000D03*
X25236Y-6000D03*
X26236Y-6000D03*
X25236Y-8000D03*
X29236Y-8000D03*
X29236Y-10000D03*
X29236Y-9000D03*
X28236Y-7000D03*
X27236Y-7000D03*
X28236Y-8000D03*
X27236Y-8000D03*
X28236Y-9000D03*
X27236Y-9000D03*
X28236Y-10000D03*
X27236Y-10000D03*
X26236Y-9000D03*
X25236Y-9000D03*
X26236Y-10000D03*
X25236Y-10000D03*
X25236Y-5000D03*
X26236Y-5000D03*
X25236Y-4000D03*
X26236Y-4000D03*
X27236Y-5000D03*
X28236Y-5000D03*
X27236Y-4000D03*
X28236Y-4000D03*
X27236Y-3000D03*
X28236Y-3000D03*
X27236Y-2000D03*
X28236Y-2000D03*
X29236Y-4000D03*
X29236Y-5000D03*
X29236Y-3000D03*
X25236Y-3000D03*
X26236Y-1000D03*
X25236Y-1000D03*
X25236Y-2000D03*
X26236Y-3000D03*
X26236Y-2000D03*
X28236Y-1000D03*
X27236Y-1000D03*
X29236Y-1000D03*
X29236Y-2000D03*
X25236Y-15000D03*
X26236Y-15000D03*
X25236Y-14000D03*
X26236Y-14000D03*
X27236Y-15000D03*
X28236Y-15000D03*
X27236Y-14000D03*
X28236Y-14000D03*
X27236Y-13000D03*
X28236Y-13000D03*
X27236Y-12000D03*
X28236Y-12000D03*
X29236Y-14000D03*
X29236Y-15000D03*
X29236Y-13000D03*
X25236Y-13000D03*
X26236Y-11000D03*
X25236Y-11000D03*
X25236Y-12000D03*
X26236Y-13000D03*
X26236Y-12000D03*
X28236Y-11000D03*
X27236Y-11000D03*
X29236Y-11000D03*
X29236Y-12000D03*
X34236Y-12000D03*
X34236Y-11000D03*
X32236Y-11000D03*
X33236Y-11000D03*
X31236Y-12000D03*
X31236Y-13000D03*
X30236Y-12000D03*
X30236Y-11000D03*
X31236Y-11000D03*
X30236Y-13000D03*
X34236Y-13000D03*
X34236Y-15000D03*
X34236Y-14000D03*
X33236Y-12000D03*
X32236Y-12000D03*
X33236Y-13000D03*
X32236Y-13000D03*
X33236Y-14000D03*
X32236Y-14000D03*
X33236Y-15000D03*
X32236Y-15000D03*
X31236Y-14000D03*
X30236Y-14000D03*
X31236Y-15000D03*
X30236Y-15000D03*
X34236Y-2000D03*
X34236Y-1000D03*
X32236Y-1000D03*
X33236Y-1000D03*
X31236Y-2000D03*
X31236Y-3000D03*
X30236Y-2000D03*
X30236Y-1000D03*
X31236Y-1000D03*
X30236Y-3000D03*
X34236Y-3000D03*
X34236Y-5000D03*
X34236Y-4000D03*
X33236Y-2000D03*
X32236Y-2000D03*
X33236Y-3000D03*
X32236Y-3000D03*
X33236Y-4000D03*
X32236Y-4000D03*
X33236Y-5000D03*
X32236Y-5000D03*
X31236Y-4000D03*
X30236Y-4000D03*
X31236Y-5000D03*
X30236Y-5000D03*
X35236Y-5000D03*
X36236Y-5000D03*
X35236Y-4000D03*
X36236Y-4000D03*
X37236Y-5000D03*
X38236Y-5000D03*
X37236Y-4000D03*
X38236Y-4000D03*
X37236Y-3000D03*
X38236Y-3000D03*
X37236Y-2000D03*
X38236Y-2000D03*
X39236Y-4000D03*
X39236Y-5000D03*
X39236Y-3000D03*
X35236Y-3000D03*
X36236Y-1000D03*
X35236Y-1000D03*
X35236Y-2000D03*
X36236Y-3000D03*
X36236Y-2000D03*
X38236Y-1000D03*
X37236Y-1000D03*
X39236Y-1000D03*
X39236Y-2000D03*
X39236Y-7000D03*
X39236Y-6000D03*
X37236Y-6000D03*
X38236Y-6000D03*
X36236Y-7000D03*
X36236Y-8000D03*
X35236Y-7000D03*
X35236Y-6000D03*
X36236Y-6000D03*
X35236Y-8000D03*
X39236Y-8000D03*
X39236Y-10000D03*
X39236Y-9000D03*
X38236Y-7000D03*
X37236Y-7000D03*
X38236Y-8000D03*
X37236Y-8000D03*
X38236Y-9000D03*
X37236Y-9000D03*
X38236Y-10000D03*
X37236Y-10000D03*
X36236Y-9000D03*
X35236Y-9000D03*
X36236Y-10000D03*
X35236Y-10000D03*
X30236Y-10000D03*
X31236Y-10000D03*
X30236Y-9000D03*
X31236Y-9000D03*
X32236Y-10000D03*
X33236Y-10000D03*
X32236Y-9000D03*
X33236Y-9000D03*
X32236Y-8000D03*
X33236Y-8000D03*
X32236Y-7000D03*
X33236Y-7000D03*
X34236Y-9000D03*
X34236Y-10000D03*
X34236Y-8000D03*
X30236Y-8000D03*
X31236Y-6000D03*
X30236Y-6000D03*
X30236Y-7000D03*
X31236Y-8000D03*
X31236Y-7000D03*
X33236Y-6000D03*
X32236Y-6000D03*
X34236Y-6000D03*
X34236Y-7000D03*
X39236Y-12000D03*
X39236Y-11000D03*
X37236Y-11000D03*
X38236Y-11000D03*
X36236Y-12000D03*
X36236Y-13000D03*
X35236Y-12000D03*
X35236Y-11000D03*
X36236Y-11000D03*
X35236Y-13000D03*
X39236Y-13000D03*
X39236Y-15000D03*
X39236Y-14000D03*
X38236Y-12000D03*
X37236Y-12000D03*
X38236Y-13000D03*
X37236Y-13000D03*
X38236Y-14000D03*
X37236Y-14000D03*
X38236Y-15000D03*
X37236Y-15000D03*
X36236Y-14000D03*
X35236Y-14000D03*
X36236Y-15000D03*
X35236Y-15000D03*
X39236Y-16000D03*
X38236Y-16000D03*
X32236Y-18000D03*
G54D12*
X33236Y-19000D03*
X33236Y-18000D03*
G54D11*
X10236Y-19000D03*
X11236Y-19000D03*
X12236Y-19000D03*
X13236Y-19000D03*
X14236Y-19000D03*
X15236Y-19000D03*
X16236Y-19000D03*
X17236Y-19000D03*
X18236Y-19000D03*
X19236Y-19000D03*
X20236Y-19000D03*
X21236Y-19000D03*
X22236Y-19000D03*
X23236Y-19000D03*
X24236Y-19000D03*
X25236Y-19000D03*
X26236Y-19000D03*
X27236Y-19000D03*
X28236Y-19000D03*
X29236Y-19000D03*
X30236Y-19000D03*
X31236Y-19000D03*
X31236Y-18000D03*
X35236Y-19000D03*
X36236Y-19000D03*
G54D13*
X34236Y-23196D03*
X33236Y-23196D03*
X32236Y-23196D03*
X31236Y-23196D03*
X30236Y-23196D03*
X29236Y-23196D03*
X28236Y-23196D03*
X27236Y-23196D03*
X26236Y-23196D03*
X25236Y-23196D03*
X24236Y-23196D03*
X23236Y-23196D03*
X22236Y-23196D03*
X21236Y-23196D03*
X10236Y-23196D03*
X20236Y-23196D03*
X19236Y-23196D03*
X18236Y-23196D03*
X17236Y-23196D03*
X16236Y-23196D03*
X15236Y-23196D03*
X14236Y-23196D03*
X13236Y-23196D03*
X11236Y-23196D03*
G54D14*
X13236Y-22251D03*
X11236Y-22251D03*
X10236Y-22251D03*
X34236Y-22251D03*
X33236Y-22251D03*
X32236Y-22251D03*
X31236Y-22251D03*
X30236Y-22251D03*
X29236Y-22251D03*
X28236Y-22251D03*
X27236Y-22251D03*
X26236Y-22251D03*
X25236Y-22251D03*
X24236Y-22251D03*
X23236Y-22251D03*
X22236Y-22251D03*
X21236Y-22251D03*
X20236Y-22251D03*
X19236Y-22251D03*
X18236Y-22251D03*
X17236Y-22251D03*
X16236Y-22251D03*
X15236Y-22251D03*
X14236Y-22251D03*
X12236Y-22251D03*
G54D13*
X12236Y-23196D03*
G54D11*
X35236Y-18000D03*
X36236Y-16000D03*
X37236Y-18000D03*
X38236Y-18000D03*
X39236Y-18000D03*
X39236Y-19000D03*
X38236Y-19000D03*
X37236Y-19000D03*
X34236Y-18000D03*
X33236Y-17000D03*
X34236Y-17000D03*
X35236Y-16000D03*
X35236Y-17000D03*
X37236Y-16000D03*
X36236Y-18000D03*
X37236Y-17000D03*
X36236Y-17000D03*
X38236Y-17000D03*
X39236Y-17000D03*
G54D15*
X12236Y-21400D02*
X11736Y-20900D01*
X11736Y-19500D02*
X12236Y-19000D01*
X11736Y-20900D02*
X11736Y-19500D01*
X12236Y-22251D02*
X12236Y-21400D01*
X11236Y-21400D02*
X10736Y-20900D01*
X11236Y-22251D02*
X11236Y-21400D01*
X10736Y-20900D02*
X10736Y-19500D01*
X10736Y-19500D02*
X11236Y-19000D01*
G54D16*
X35636Y-19600D02*
X35936Y-19600D01*
X36236Y-19300D02*
X36236Y-19000D01*
X35936Y-19600D02*
X36236Y-19300D01*
X34936Y-19700D02*
X35036Y-19600D01*
X35036Y-19600D02*
X35636Y-19600D01*
X34736Y-19900D02*
X34936Y-19700D01*
X34236Y-21300D02*
X34736Y-20800D01*
X34236Y-22251D02*
X34236Y-21300D01*
X34736Y-20800D02*
X34736Y-19900D01*
X33936Y-19500D02*
X34436Y-19000D01*
X34436Y-19000D02*
X35236Y-19000D01*
X33736Y-19700D02*
X33936Y-19500D01*
X33236Y-21300D02*
X33736Y-20800D01*
X33236Y-22251D02*
X33236Y-21300D01*
X33736Y-20800D02*
X33736Y-19700D01*
X29236Y-21300D02*
X28736Y-20800D01*
X28736Y-19500D02*
X29236Y-19000D01*
X28736Y-20800D02*
X28736Y-19500D01*
X29236Y-22251D02*
X29236Y-21300D01*
X30236Y-21300D02*
X29736Y-20800D01*
X29736Y-19500D02*
X30236Y-19000D01*
X29736Y-20800D02*
X29736Y-19500D01*
X30236Y-22251D02*
X30236Y-21300D01*
X27236Y-21300D02*
X26736Y-20800D01*
X26736Y-19500D02*
X27236Y-19000D01*
X26736Y-20800D02*
X26736Y-19500D01*
X27236Y-22251D02*
X27236Y-21300D01*
X31236Y-21300D02*
X30736Y-20800D01*
X31236Y-22251D02*
X31236Y-21300D01*
X30736Y-20800D02*
X30736Y-19500D01*
X30736Y-19500D02*
X31236Y-19000D01*
X28236Y-21300D02*
X27736Y-20800D01*
X27736Y-19500D02*
X28236Y-19000D01*
X27736Y-20800D02*
X27736Y-19500D01*
X28236Y-21300D02*
X28236Y-22251D01*
X21236Y-21300D02*
X20736Y-20800D01*
X20736Y-19500D02*
X21236Y-19000D01*
X20736Y-20800D02*
X20736Y-19500D01*
X21236Y-22251D02*
X21236Y-21300D01*
X25236Y-21300D02*
X24736Y-20800D01*
X24736Y-19500D02*
X25236Y-19000D01*
X24736Y-20800D02*
X24736Y-19500D01*
X25236Y-21300D02*
X25236Y-22251D01*
X23236Y-21300D02*
X22736Y-20800D01*
X23236Y-21300D02*
X23236Y-22251D01*
X22736Y-20800D02*
X22736Y-19500D01*
X22736Y-19500D02*
X23236Y-19000D01*
X22236Y-21300D02*
X21736Y-20800D01*
X21736Y-19500D02*
X22236Y-19000D01*
X21736Y-20800D02*
X21736Y-19500D01*
X22236Y-21300D02*
X22236Y-22251D01*
X20236Y-21300D02*
X19736Y-20800D01*
X19736Y-19500D02*
X20236Y-19000D01*
X19736Y-20800D02*
X19736Y-19500D01*
X20236Y-21300D02*
X20236Y-22251D01*
X19236Y-21300D02*
X18736Y-20800D01*
X18736Y-19500D02*
X19236Y-19000D01*
X18736Y-20800D02*
X18736Y-19500D01*
X19236Y-22251D02*
X19236Y-21300D01*
X24236Y-21300D02*
X23736Y-20800D01*
X23736Y-19500D02*
X24236Y-19000D01*
X23736Y-20800D02*
X23736Y-19500D01*
X24236Y-22251D02*
X24236Y-21300D01*
X26236Y-21300D02*
X25736Y-20800D01*
X25736Y-19500D02*
X26236Y-19000D01*
X25736Y-20800D02*
X25736Y-19500D01*
X26236Y-22251D02*
X26236Y-21300D01*
X18236Y-21300D02*
X17736Y-20800D01*
X17736Y-19500D02*
X18236Y-19000D01*
X17736Y-20800D02*
X17736Y-19500D01*
X18236Y-21300D02*
X18236Y-22251D01*
X17236Y-21300D02*
X16736Y-20800D01*
X16736Y-19500D02*
X17236Y-19000D01*
X16736Y-20800D02*
X16736Y-19500D01*
X17236Y-22251D02*
X17236Y-21300D01*
X16236Y-21300D02*
X15736Y-20800D01*
X15736Y-19500D02*
X16236Y-19000D01*
X15736Y-20800D02*
X15736Y-19500D01*
X16236Y-22251D02*
X16236Y-21300D01*
X15236Y-21300D02*
X14736Y-20800D01*
X14736Y-19500D02*
X15236Y-19000D01*
X14736Y-20800D02*
X14736Y-19500D01*
X15236Y-22251D02*
X15236Y-21300D01*
G54D15*
X14236Y-21300D02*
X13736Y-20800D01*
X14236Y-22251D02*
X14236Y-21300D01*
X13736Y-20800D02*
X13736Y-19500D01*
X13736Y-19500D02*
X14236Y-19000D01*
X13236Y-21300D02*
X12736Y-20800D01*
X12736Y-19500D02*
X13236Y-19000D01*
X12736Y-20800D02*
X12736Y-19500D01*
X13236Y-22251D02*
X13236Y-21300D01*
G54D17*
X32236Y-21300D02*
X31736Y-20800D01*
X32236Y-21300D02*
X32236Y-22251D01*
X31736Y-18500D02*
X31236Y-18000D01*
X31736Y-18700D02*
X31736Y-18500D01*
X31736Y-19000D02*
X31736Y-18700D01*
X31736Y-20800D02*
X31736Y-19000D01*
G54D16*
X10236Y-21300D02*
X9736Y-20800D01*
X10236Y-22251D02*
X10236Y-21300D01*
X9736Y-20800D02*
X9736Y-19500D01*
X9736Y-19500D02*
X10236Y-19000D01*
M02*
