G04 (created by PCBNEW (2013-09-28 BZR 4356)-product) date 12/11/2013 13:19:40*
%MOIN*%
G04 Gerber Fmt 3.4, Leading zero omitted, Abs format*
%FSLAX34Y34*%
G01*
G70*
G90*
G04 APERTURE LIST*
%ADD10C,0.005906*%
%ADD11C,0.014961*%
G04 APERTURE END LIST*
G54D10*
G54D11*
X45721Y-28936D02*
G75*
G03X45721Y-28936I-1312J0D01*
G74*
G01*
X42440Y-28936D02*
X46377Y-28936D01*
X44409Y-26967D02*
X44409Y-30904D01*
X45721Y3937D02*
G75*
G03X45721Y3937I-1312J0D01*
G74*
G01*
X42440Y3937D02*
X46377Y3937D01*
X44409Y5905D02*
X44409Y1968D01*
X-2623Y3939D02*
G75*
G03X-2623Y3939I-1312J0D01*
G74*
G01*
X-5904Y3939D02*
X-1967Y3939D01*
X-3935Y5907D02*
X-3935Y1970D01*
X-2624Y-28935D02*
G75*
G03X-2624Y-28935I-1312J0D01*
G74*
G01*
X-5905Y-28935D02*
X-1968Y-28935D01*
X-3936Y-26966D02*
X-3936Y-30903D01*
G54D10*
X8736Y0D02*
X0Y0D01*
X35736Y0D02*
X40472Y0D01*
X9736Y0D02*
X34736Y0D01*
X9736Y-500D02*
X9736Y0D01*
X8736Y-500D02*
X9736Y-500D01*
X8736Y0D02*
X8736Y-500D01*
X35736Y-500D02*
X35736Y0D01*
X34736Y-500D02*
X35736Y-500D01*
X34736Y0D02*
X34736Y-500D01*
X4372Y-15669D02*
X0Y-15669D01*
X4372Y-15669D02*
X4372Y-20000D01*
X9354Y-20000D02*
X4372Y-20000D01*
X35118Y-20000D02*
X40472Y-20000D01*
X35118Y-20000D02*
X35118Y-24452D01*
X9354Y-20000D02*
X9354Y-24452D01*
X9354Y-24452D02*
G75*
G03X9901Y-25000I547J0D01*
G74*
G01*
X35118Y-24452D02*
G75*
G02X34570Y-25000I-547J0D01*
G74*
G01*
X0Y0D02*
X0Y-15669D01*
X40472Y0D02*
X40472Y-20000D01*
X9901Y-25000D02*
X34570Y-25000D01*
M02*
