G04 (created by PCBNEW (2013-09-28 BZR 4356)-product) date 12/11/2013 13:19:40*
%MOIN*%
G04 Gerber Fmt 3.4, Leading zero omitted, Abs format*
%FSLAX34Y34*%
G01*
G70*
G90*
G04 APERTURE LIST*
%ADD10C,0.005906*%
%ADD11C,0.011811*%
G04 APERTURE END LIST*
G54D10*
G54D11*
X959Y-37987D02*
X959Y-37397D01*
X1296Y-37987D01*
X1296Y-37397D01*
X1662Y-37987D02*
X1606Y-37959D01*
X1578Y-37931D01*
X1550Y-37875D01*
X1550Y-37706D01*
X1578Y-37650D01*
X1606Y-37622D01*
X1662Y-37593D01*
X1746Y-37593D01*
X1803Y-37622D01*
X1831Y-37650D01*
X1859Y-37706D01*
X1859Y-37875D01*
X1831Y-37931D01*
X1803Y-37959D01*
X1746Y-37987D01*
X1662Y-37987D01*
X2028Y-37593D02*
X2253Y-37593D01*
X2112Y-37397D02*
X2112Y-37903D01*
X2140Y-37959D01*
X2196Y-37987D01*
X2253Y-37987D01*
X2899Y-37987D02*
X2899Y-37593D01*
X2899Y-37650D02*
X2928Y-37622D01*
X2984Y-37593D01*
X3068Y-37593D01*
X3124Y-37622D01*
X3152Y-37678D01*
X3152Y-37987D01*
X3152Y-37678D02*
X3181Y-37622D01*
X3237Y-37593D01*
X3321Y-37593D01*
X3377Y-37622D01*
X3406Y-37678D01*
X3406Y-37987D01*
X3912Y-37959D02*
X3856Y-37987D01*
X3743Y-37987D01*
X3687Y-37959D01*
X3659Y-37903D01*
X3659Y-37678D01*
X3687Y-37622D01*
X3743Y-37593D01*
X3856Y-37593D01*
X3912Y-37622D01*
X3940Y-37678D01*
X3940Y-37734D01*
X3659Y-37790D01*
X4109Y-37593D02*
X4334Y-37593D01*
X4193Y-37397D02*
X4193Y-37903D01*
X4221Y-37959D01*
X4277Y-37987D01*
X4334Y-37987D01*
X4784Y-37987D02*
X4784Y-37678D01*
X4755Y-37622D01*
X4699Y-37593D01*
X4587Y-37593D01*
X4530Y-37622D01*
X4784Y-37959D02*
X4727Y-37987D01*
X4587Y-37987D01*
X4530Y-37959D01*
X4502Y-37903D01*
X4502Y-37847D01*
X4530Y-37790D01*
X4587Y-37762D01*
X4727Y-37762D01*
X4784Y-37734D01*
X5149Y-37987D02*
X5093Y-37959D01*
X5065Y-37903D01*
X5065Y-37397D01*
X5458Y-37987D02*
X5402Y-37959D01*
X5374Y-37903D01*
X5374Y-37397D01*
X5683Y-37987D02*
X5683Y-37593D01*
X5683Y-37397D02*
X5655Y-37425D01*
X5683Y-37453D01*
X5712Y-37425D01*
X5683Y-37397D01*
X5683Y-37453D01*
X5908Y-37593D02*
X6218Y-37593D01*
X5908Y-37987D01*
X6218Y-37987D01*
X6668Y-37959D02*
X6611Y-37987D01*
X6499Y-37987D01*
X6443Y-37959D01*
X6415Y-37903D01*
X6415Y-37678D01*
X6443Y-37622D01*
X6499Y-37593D01*
X6611Y-37593D01*
X6668Y-37622D01*
X6696Y-37678D01*
X6696Y-37734D01*
X6415Y-37790D01*
X7202Y-37987D02*
X7202Y-37397D01*
X7202Y-37959D02*
X7146Y-37987D01*
X7033Y-37987D01*
X6977Y-37959D01*
X6949Y-37931D01*
X6921Y-37875D01*
X6921Y-37706D01*
X6949Y-37650D01*
X6977Y-37622D01*
X7033Y-37593D01*
X7146Y-37593D01*
X7202Y-37622D01*
X7933Y-37987D02*
X7933Y-37397D01*
X8186Y-37987D02*
X8186Y-37678D01*
X8158Y-37622D01*
X8102Y-37593D01*
X8017Y-37593D01*
X7961Y-37622D01*
X7933Y-37650D01*
X8552Y-37987D02*
X8496Y-37959D01*
X8467Y-37931D01*
X8439Y-37875D01*
X8439Y-37706D01*
X8467Y-37650D01*
X8496Y-37622D01*
X8552Y-37593D01*
X8636Y-37593D01*
X8692Y-37622D01*
X8721Y-37650D01*
X8749Y-37706D01*
X8749Y-37875D01*
X8721Y-37931D01*
X8692Y-37959D01*
X8636Y-37987D01*
X8552Y-37987D01*
X9086Y-37987D02*
X9030Y-37959D01*
X9002Y-37903D01*
X9002Y-37397D01*
X9536Y-37959D02*
X9480Y-37987D01*
X9367Y-37987D01*
X9311Y-37959D01*
X9283Y-37903D01*
X9283Y-37678D01*
X9311Y-37622D01*
X9367Y-37593D01*
X9480Y-37593D01*
X9536Y-37622D01*
X9564Y-37678D01*
X9564Y-37734D01*
X9283Y-37790D01*
X-5188Y-5359D02*
X-5188Y-5725D01*
X-5413Y-5528D01*
X-5413Y-5613D01*
X-5441Y-5669D01*
X-5469Y-5697D01*
X-5525Y-5725D01*
X-5666Y-5725D01*
X-5722Y-5697D01*
X-5750Y-5669D01*
X-5778Y-5613D01*
X-5778Y-5444D01*
X-5750Y-5388D01*
X-5722Y-5359D01*
X-5778Y-6006D02*
X-5778Y-6119D01*
X-5750Y-6175D01*
X-5722Y-6203D01*
X-5638Y-6259D01*
X-5525Y-6287D01*
X-5300Y-6287D01*
X-5244Y-6259D01*
X-5216Y-6231D01*
X-5188Y-6175D01*
X-5188Y-6062D01*
X-5216Y-6006D01*
X-5244Y-5978D01*
X-5300Y-5950D01*
X-5441Y-5950D01*
X-5497Y-5978D01*
X-5525Y-6006D01*
X-5553Y-6062D01*
X-5553Y-6175D01*
X-5525Y-6231D01*
X-5497Y-6259D01*
X-5441Y-6287D01*
X-5750Y-6569D02*
X-5778Y-6569D01*
X-5835Y-6541D01*
X-5863Y-6512D01*
X-5441Y-6906D02*
X-5413Y-6850D01*
X-5385Y-6822D01*
X-5329Y-6794D01*
X-5300Y-6794D01*
X-5244Y-6822D01*
X-5216Y-6850D01*
X-5188Y-6906D01*
X-5188Y-7019D01*
X-5216Y-7075D01*
X-5244Y-7103D01*
X-5300Y-7131D01*
X-5329Y-7131D01*
X-5385Y-7103D01*
X-5413Y-7075D01*
X-5441Y-7019D01*
X-5441Y-6906D01*
X-5469Y-6850D01*
X-5497Y-6822D01*
X-5553Y-6794D01*
X-5666Y-6794D01*
X-5722Y-6822D01*
X-5750Y-6850D01*
X-5778Y-6906D01*
X-5778Y-7019D01*
X-5750Y-7075D01*
X-5722Y-7103D01*
X-5666Y-7131D01*
X-5553Y-7131D01*
X-5497Y-7103D01*
X-5469Y-7075D01*
X-5441Y-7019D01*
X-5188Y-7497D02*
X-5188Y-7553D01*
X-5216Y-7609D01*
X-5244Y-7637D01*
X-5300Y-7665D01*
X-5413Y-7694D01*
X-5553Y-7694D01*
X-5666Y-7665D01*
X-5722Y-7637D01*
X-5750Y-7609D01*
X-5778Y-7553D01*
X-5778Y-7497D01*
X-5750Y-7440D01*
X-5722Y-7412D01*
X-5666Y-7384D01*
X-5553Y-7356D01*
X-5413Y-7356D01*
X-5300Y-7384D01*
X-5244Y-7412D01*
X-5216Y-7440D01*
X-5188Y-7497D01*
X-5188Y-8059D02*
X-5188Y-8115D01*
X-5216Y-8172D01*
X-5244Y-8200D01*
X-5300Y-8228D01*
X-5413Y-8256D01*
X-5553Y-8256D01*
X-5666Y-8228D01*
X-5722Y-8200D01*
X-5750Y-8172D01*
X-5778Y-8115D01*
X-5778Y-8059D01*
X-5750Y-8003D01*
X-5722Y-7975D01*
X-5666Y-7947D01*
X-5553Y-7919D01*
X-5413Y-7919D01*
X-5300Y-7947D01*
X-5244Y-7975D01*
X-5216Y-8003D01*
X-5188Y-8059D01*
X-5778Y-8959D02*
X-5385Y-8959D01*
X-5441Y-8959D02*
X-5413Y-8987D01*
X-5385Y-9043D01*
X-5385Y-9128D01*
X-5413Y-9184D01*
X-5469Y-9212D01*
X-5778Y-9212D01*
X-5469Y-9212D02*
X-5413Y-9240D01*
X-5385Y-9296D01*
X-5385Y-9381D01*
X-5413Y-9437D01*
X-5469Y-9465D01*
X-5778Y-9465D01*
X-5778Y-9746D02*
X-5385Y-9746D01*
X-5441Y-9746D02*
X-5413Y-9775D01*
X-5385Y-9831D01*
X-5385Y-9915D01*
X-5413Y-9971D01*
X-5469Y-9999D01*
X-5778Y-9999D01*
X-5469Y-9999D02*
X-5413Y-10028D01*
X-5385Y-10084D01*
X-5385Y-10168D01*
X-5413Y-10224D01*
X-5469Y-10253D01*
X-5778Y-10253D01*
X-4980Y0D02*
X-4980Y-15669D01*
X-3456Y0D02*
X-6043Y0D01*
X-3456Y-15669D02*
X-6043Y-15669D01*
X-4980Y-15669D02*
X-5211Y-15225D01*
X-4980Y-15669D02*
X-4749Y-15225D01*
X-4980Y0D02*
X-5211Y-443D01*
X-4980Y0D02*
X-4749Y-443D01*
X65Y-22573D02*
X-271Y-22573D01*
X-102Y-22573D02*
X-102Y-21983D01*
X-158Y-22067D01*
X-214Y-22123D01*
X-271Y-22151D01*
X628Y-22574D02*
X290Y-22574D01*
X459Y-22574D02*
X460Y-21983D01*
X403Y-22067D01*
X347Y-22124D01*
X291Y-22152D01*
X909Y-22546D02*
X909Y-22574D01*
X881Y-22630D01*
X853Y-22658D01*
X1472Y-22575D02*
X1134Y-22574D01*
X1303Y-22574D02*
X1303Y-21984D01*
X1247Y-22068D01*
X1191Y-22124D01*
X1134Y-22153D01*
X1838Y-21984D02*
X1894Y-21984D01*
X1950Y-22013D01*
X1978Y-22041D01*
X2006Y-22097D01*
X2034Y-22210D01*
X2034Y-22350D01*
X2006Y-22463D01*
X1978Y-22519D01*
X1950Y-22547D01*
X1893Y-22575D01*
X1837Y-22575D01*
X1781Y-22547D01*
X1753Y-22519D01*
X1725Y-22462D01*
X1697Y-22350D01*
X1697Y-22209D01*
X1725Y-22097D01*
X1753Y-22041D01*
X1781Y-22012D01*
X1838Y-21984D01*
X2400Y-21985D02*
X2456Y-21985D01*
X2513Y-22013D01*
X2541Y-22041D01*
X2569Y-22098D01*
X2597Y-22210D01*
X2597Y-22351D01*
X2568Y-22463D01*
X2540Y-22519D01*
X2512Y-22547D01*
X2456Y-22576D01*
X2400Y-22575D01*
X2343Y-22547D01*
X2315Y-22519D01*
X2287Y-22463D01*
X2259Y-22350D01*
X2259Y-22210D01*
X2287Y-22097D01*
X2316Y-22041D01*
X2344Y-22013D01*
X2400Y-21985D01*
X3299Y-22576D02*
X3300Y-22183D01*
X3300Y-22239D02*
X3328Y-22211D01*
X3384Y-22183D01*
X3469Y-22183D01*
X3525Y-22211D01*
X3553Y-22267D01*
X3553Y-22577D01*
X3553Y-22267D02*
X3581Y-22211D01*
X3637Y-22183D01*
X3722Y-22183D01*
X3778Y-22211D01*
X3806Y-22267D01*
X3806Y-22577D01*
X4087Y-22577D02*
X4087Y-22183D01*
X4087Y-22240D02*
X4115Y-22211D01*
X4172Y-22183D01*
X4256Y-22183D01*
X4312Y-22212D01*
X4340Y-22268D01*
X4340Y-22577D01*
X4340Y-22268D02*
X4368Y-22212D01*
X4425Y-22184D01*
X4509Y-22184D01*
X4565Y-22212D01*
X4593Y-22268D01*
X4593Y-22577D01*
X4360Y-21779D02*
X-9Y-21775D01*
X4362Y-20248D02*
X4359Y-22842D01*
X-7Y-20244D02*
X-10Y-22838D01*
X-9Y-21775D02*
X434Y-21544D01*
X-9Y-21775D02*
X434Y-22006D01*
X4360Y-21779D02*
X3917Y-21547D01*
X4360Y-21779D02*
X3917Y-22009D01*
X4753Y-30649D02*
X4415Y-30649D01*
X4584Y-30649D02*
X4584Y-30058D01*
X4528Y-30142D01*
X4471Y-30199D01*
X4415Y-30227D01*
X4978Y-30114D02*
X5006Y-30086D01*
X5062Y-30058D01*
X5203Y-30058D01*
X5259Y-30086D01*
X5287Y-30114D01*
X5315Y-30170D01*
X5315Y-30227D01*
X5287Y-30311D01*
X4949Y-30649D01*
X5315Y-30649D01*
X5596Y-30620D02*
X5596Y-30649D01*
X5568Y-30705D01*
X5540Y-30733D01*
X6102Y-30058D02*
X5990Y-30058D01*
X5934Y-30086D01*
X5906Y-30114D01*
X5849Y-30199D01*
X5821Y-30311D01*
X5821Y-30536D01*
X5849Y-30592D01*
X5877Y-30620D01*
X5934Y-30649D01*
X6046Y-30649D01*
X6102Y-30620D01*
X6131Y-30592D01*
X6159Y-30536D01*
X6159Y-30395D01*
X6131Y-30339D01*
X6102Y-30311D01*
X6046Y-30283D01*
X5934Y-30283D01*
X5877Y-30311D01*
X5849Y-30339D01*
X5821Y-30395D01*
X6665Y-30058D02*
X6552Y-30058D01*
X6496Y-30086D01*
X6468Y-30114D01*
X6412Y-30199D01*
X6384Y-30311D01*
X6384Y-30536D01*
X6412Y-30592D01*
X6440Y-30620D01*
X6496Y-30649D01*
X6609Y-30649D01*
X6665Y-30620D01*
X6693Y-30592D01*
X6721Y-30536D01*
X6721Y-30395D01*
X6693Y-30339D01*
X6665Y-30311D01*
X6609Y-30283D01*
X6496Y-30283D01*
X6440Y-30311D01*
X6412Y-30339D01*
X6384Y-30395D01*
X7087Y-30058D02*
X7143Y-30058D01*
X7199Y-30086D01*
X7227Y-30114D01*
X7255Y-30170D01*
X7284Y-30283D01*
X7284Y-30424D01*
X7255Y-30536D01*
X7227Y-30592D01*
X7199Y-30620D01*
X7143Y-30649D01*
X7087Y-30649D01*
X7030Y-30620D01*
X7002Y-30592D01*
X6974Y-30536D01*
X6946Y-30424D01*
X6946Y-30283D01*
X6974Y-30170D01*
X7002Y-30114D01*
X7030Y-30086D01*
X7087Y-30058D01*
X7987Y-30649D02*
X7987Y-30255D01*
X7987Y-30311D02*
X8015Y-30283D01*
X8071Y-30255D01*
X8155Y-30255D01*
X8212Y-30283D01*
X8240Y-30339D01*
X8240Y-30649D01*
X8240Y-30339D02*
X8268Y-30283D01*
X8324Y-30255D01*
X8408Y-30255D01*
X8465Y-30283D01*
X8493Y-30339D01*
X8493Y-30649D01*
X8774Y-30649D02*
X8774Y-30255D01*
X8774Y-30311D02*
X8802Y-30283D01*
X8858Y-30255D01*
X8943Y-30255D01*
X8999Y-30283D01*
X9027Y-30339D01*
X9027Y-30649D01*
X9027Y-30339D02*
X9055Y-30283D01*
X9111Y-30255D01*
X9196Y-30255D01*
X9252Y-30283D01*
X9280Y-30339D01*
X9280Y-30649D01*
X9354Y-29850D02*
X4370Y-29850D01*
X9354Y-28275D02*
X9354Y-30913D01*
X4370Y-28275D02*
X4370Y-30913D01*
X4370Y-29850D02*
X4813Y-29619D01*
X4370Y-29850D02*
X4813Y-30081D01*
X9354Y-29850D02*
X8910Y-29619D01*
X9354Y-29850D02*
X8910Y-30081D01*
X35686Y-30649D02*
X35348Y-30649D01*
X35517Y-30649D02*
X35517Y-30058D01*
X35461Y-30142D01*
X35404Y-30199D01*
X35348Y-30227D01*
X35883Y-30058D02*
X36248Y-30058D01*
X36051Y-30283D01*
X36136Y-30283D01*
X36192Y-30311D01*
X36220Y-30339D01*
X36248Y-30395D01*
X36248Y-30536D01*
X36220Y-30592D01*
X36192Y-30620D01*
X36136Y-30649D01*
X35967Y-30649D01*
X35911Y-30620D01*
X35883Y-30592D01*
X36529Y-30620D02*
X36529Y-30649D01*
X36501Y-30705D01*
X36473Y-30733D01*
X37035Y-30058D02*
X36923Y-30058D01*
X36867Y-30086D01*
X36839Y-30114D01*
X36782Y-30199D01*
X36754Y-30311D01*
X36754Y-30536D01*
X36782Y-30592D01*
X36811Y-30620D01*
X36867Y-30649D01*
X36979Y-30649D01*
X37035Y-30620D01*
X37064Y-30592D01*
X37092Y-30536D01*
X37092Y-30395D01*
X37064Y-30339D01*
X37035Y-30311D01*
X36979Y-30283D01*
X36867Y-30283D01*
X36811Y-30311D01*
X36782Y-30339D01*
X36754Y-30395D01*
X37457Y-30058D02*
X37514Y-30058D01*
X37570Y-30086D01*
X37598Y-30114D01*
X37626Y-30170D01*
X37654Y-30283D01*
X37654Y-30424D01*
X37626Y-30536D01*
X37598Y-30592D01*
X37570Y-30620D01*
X37514Y-30649D01*
X37457Y-30649D01*
X37401Y-30620D01*
X37373Y-30592D01*
X37345Y-30536D01*
X37317Y-30424D01*
X37317Y-30283D01*
X37345Y-30170D01*
X37373Y-30114D01*
X37401Y-30086D01*
X37457Y-30058D01*
X38020Y-30058D02*
X38076Y-30058D01*
X38132Y-30086D01*
X38160Y-30114D01*
X38188Y-30170D01*
X38217Y-30283D01*
X38217Y-30424D01*
X38188Y-30536D01*
X38160Y-30592D01*
X38132Y-30620D01*
X38076Y-30649D01*
X38020Y-30649D01*
X37964Y-30620D01*
X37935Y-30592D01*
X37907Y-30536D01*
X37879Y-30424D01*
X37879Y-30283D01*
X37907Y-30170D01*
X37935Y-30114D01*
X37964Y-30086D01*
X38020Y-30058D01*
X38920Y-30649D02*
X38920Y-30255D01*
X38920Y-30311D02*
X38948Y-30283D01*
X39004Y-30255D01*
X39088Y-30255D01*
X39145Y-30283D01*
X39173Y-30339D01*
X39173Y-30649D01*
X39173Y-30339D02*
X39201Y-30283D01*
X39257Y-30255D01*
X39341Y-30255D01*
X39398Y-30283D01*
X39426Y-30339D01*
X39426Y-30649D01*
X39707Y-30649D02*
X39707Y-30255D01*
X39707Y-30311D02*
X39735Y-30283D01*
X39791Y-30255D01*
X39876Y-30255D01*
X39932Y-30283D01*
X39960Y-30339D01*
X39960Y-30649D01*
X39960Y-30339D02*
X39988Y-30283D01*
X40044Y-30255D01*
X40129Y-30255D01*
X40185Y-30283D01*
X40213Y-30339D01*
X40213Y-30649D01*
X35118Y-29850D02*
X40472Y-29850D01*
X35118Y-28275D02*
X35118Y-30913D01*
X40472Y-28275D02*
X40472Y-30913D01*
X40472Y-29850D02*
X40028Y-30081D01*
X40472Y-29850D02*
X40028Y-29619D01*
X35118Y-29850D02*
X35561Y-30081D01*
X35118Y-29850D02*
X35561Y-29619D01*
X20070Y-27156D02*
X19958Y-27156D01*
X19902Y-27185D01*
X19874Y-27213D01*
X19817Y-27297D01*
X19789Y-27410D01*
X19789Y-27634D01*
X19817Y-27691D01*
X19845Y-27719D01*
X19902Y-27747D01*
X20014Y-27747D01*
X20070Y-27719D01*
X20098Y-27691D01*
X20127Y-27634D01*
X20127Y-27494D01*
X20098Y-27438D01*
X20070Y-27410D01*
X20014Y-27381D01*
X19902Y-27381D01*
X19845Y-27410D01*
X19817Y-27438D01*
X19789Y-27494D01*
X20661Y-27156D02*
X20380Y-27156D01*
X20352Y-27438D01*
X20380Y-27410D01*
X20436Y-27381D01*
X20577Y-27381D01*
X20633Y-27410D01*
X20661Y-27438D01*
X20689Y-27494D01*
X20689Y-27634D01*
X20661Y-27691D01*
X20633Y-27719D01*
X20577Y-27747D01*
X20436Y-27747D01*
X20380Y-27719D01*
X20352Y-27691D01*
X20970Y-27719D02*
X20970Y-27747D01*
X20942Y-27803D01*
X20914Y-27831D01*
X21476Y-27353D02*
X21476Y-27747D01*
X21336Y-27128D02*
X21195Y-27550D01*
X21561Y-27550D01*
X22039Y-27353D02*
X22039Y-27747D01*
X21898Y-27128D02*
X21758Y-27550D01*
X22123Y-27550D01*
X22461Y-27156D02*
X22517Y-27156D01*
X22573Y-27185D01*
X22601Y-27213D01*
X22629Y-27269D01*
X22658Y-27381D01*
X22658Y-27522D01*
X22629Y-27634D01*
X22601Y-27691D01*
X22573Y-27719D01*
X22517Y-27747D01*
X22461Y-27747D01*
X22404Y-27719D01*
X22376Y-27691D01*
X22348Y-27634D01*
X22320Y-27522D01*
X22320Y-27381D01*
X22348Y-27269D01*
X22376Y-27213D01*
X22404Y-27185D01*
X22461Y-27156D01*
X23361Y-27747D02*
X23361Y-27353D01*
X23361Y-27410D02*
X23389Y-27381D01*
X23445Y-27353D01*
X23529Y-27353D01*
X23586Y-27381D01*
X23614Y-27438D01*
X23614Y-27747D01*
X23614Y-27438D02*
X23642Y-27381D01*
X23698Y-27353D01*
X23782Y-27353D01*
X23839Y-27381D01*
X23867Y-27438D01*
X23867Y-27747D01*
X24148Y-27747D02*
X24148Y-27353D01*
X24148Y-27410D02*
X24176Y-27381D01*
X24232Y-27353D01*
X24317Y-27353D01*
X24373Y-27381D01*
X24401Y-27438D01*
X24401Y-27747D01*
X24401Y-27438D02*
X24429Y-27381D01*
X24485Y-27353D01*
X24570Y-27353D01*
X24626Y-27381D01*
X24654Y-27438D01*
X24654Y-27747D01*
X9354Y-26948D02*
X35118Y-26948D01*
X9354Y-25165D02*
X9354Y-28011D01*
X35118Y-25165D02*
X35118Y-28011D01*
X35118Y-26948D02*
X34674Y-27179D01*
X35118Y-26948D02*
X34674Y-26717D01*
X9354Y-26948D02*
X9797Y-27179D01*
X9354Y-26948D02*
X9797Y-26717D01*
X-2338Y-10334D02*
X-2338Y-10222D01*
X-2366Y-10165D01*
X-2394Y-10137D01*
X-2478Y-10081D01*
X-2591Y-10053D01*
X-2816Y-10053D01*
X-2872Y-10081D01*
X-2900Y-10109D01*
X-2928Y-10165D01*
X-2928Y-10278D01*
X-2900Y-10334D01*
X-2872Y-10362D01*
X-2816Y-10390D01*
X-2675Y-10390D01*
X-2619Y-10362D01*
X-2591Y-10334D01*
X-2562Y-10278D01*
X-2562Y-10165D01*
X-2591Y-10109D01*
X-2619Y-10081D01*
X-2675Y-10053D01*
X-2338Y-10587D02*
X-2338Y-10953D01*
X-2562Y-10756D01*
X-2562Y-10840D01*
X-2591Y-10897D01*
X-2619Y-10925D01*
X-2675Y-10953D01*
X-2816Y-10953D01*
X-2872Y-10925D01*
X-2900Y-10897D01*
X-2928Y-10840D01*
X-2928Y-10672D01*
X-2900Y-10615D01*
X-2872Y-10587D01*
X-2900Y-11234D02*
X-2928Y-11234D01*
X-2984Y-11206D01*
X-3012Y-11178D01*
X-2338Y-11768D02*
X-2338Y-11487D01*
X-2619Y-11459D01*
X-2591Y-11487D01*
X-2562Y-11543D01*
X-2562Y-11684D01*
X-2591Y-11740D01*
X-2619Y-11768D01*
X-2675Y-11796D01*
X-2816Y-11796D01*
X-2872Y-11768D01*
X-2900Y-11740D01*
X-2928Y-11684D01*
X-2928Y-11543D01*
X-2900Y-11487D01*
X-2872Y-11459D01*
X-2338Y-12162D02*
X-2338Y-12218D01*
X-2366Y-12275D01*
X-2394Y-12303D01*
X-2450Y-12331D01*
X-2562Y-12359D01*
X-2703Y-12359D01*
X-2816Y-12331D01*
X-2872Y-12303D01*
X-2900Y-12275D01*
X-2928Y-12218D01*
X-2928Y-12162D01*
X-2900Y-12106D01*
X-2872Y-12078D01*
X-2816Y-12050D01*
X-2703Y-12021D01*
X-2562Y-12021D01*
X-2450Y-12050D01*
X-2394Y-12078D01*
X-2366Y-12106D01*
X-2338Y-12162D01*
X-2338Y-12724D02*
X-2338Y-12781D01*
X-2366Y-12837D01*
X-2394Y-12865D01*
X-2450Y-12893D01*
X-2562Y-12921D01*
X-2703Y-12921D01*
X-2816Y-12893D01*
X-2872Y-12865D01*
X-2900Y-12837D01*
X-2928Y-12781D01*
X-2928Y-12724D01*
X-2900Y-12668D01*
X-2872Y-12640D01*
X-2816Y-12612D01*
X-2703Y-12584D01*
X-2562Y-12584D01*
X-2450Y-12612D01*
X-2394Y-12640D01*
X-2366Y-12668D01*
X-2338Y-12724D01*
X-2928Y-13624D02*
X-2534Y-13624D01*
X-2591Y-13624D02*
X-2562Y-13652D01*
X-2534Y-13709D01*
X-2534Y-13793D01*
X-2562Y-13849D01*
X-2619Y-13877D01*
X-2928Y-13877D01*
X-2619Y-13877D02*
X-2562Y-13906D01*
X-2534Y-13962D01*
X-2534Y-14046D01*
X-2562Y-14102D01*
X-2619Y-14131D01*
X-2928Y-14131D01*
X-2928Y-14412D02*
X-2534Y-14412D01*
X-2591Y-14412D02*
X-2562Y-14440D01*
X-2534Y-14496D01*
X-2534Y-14580D01*
X-2562Y-14637D01*
X-2619Y-14665D01*
X-2928Y-14665D01*
X-2619Y-14665D02*
X-2562Y-14693D01*
X-2534Y-14749D01*
X-2534Y-14834D01*
X-2562Y-14890D01*
X-2619Y-14918D01*
X-2928Y-14918D01*
X-2129Y0D02*
X-2129Y-25000D01*
X-188Y0D02*
X-3192Y0D01*
X-188Y-25000D02*
X-3192Y-25000D01*
X-2129Y-25000D02*
X-2360Y-24556D01*
X-2129Y-25000D02*
X-1899Y-24556D01*
X-2129Y0D02*
X-2360Y-443D01*
X-2129Y0D02*
X-1899Y-443D01*
X43358Y-7862D02*
X43358Y-7581D01*
X43077Y-7553D01*
X43105Y-7581D01*
X43133Y-7637D01*
X43133Y-7778D01*
X43105Y-7834D01*
X43077Y-7862D01*
X43021Y-7890D01*
X42880Y-7890D01*
X42824Y-7862D01*
X42796Y-7834D01*
X42768Y-7778D01*
X42768Y-7637D01*
X42796Y-7581D01*
X42824Y-7553D01*
X43358Y-8256D02*
X43358Y-8312D01*
X43330Y-8368D01*
X43302Y-8397D01*
X43246Y-8425D01*
X43133Y-8453D01*
X42993Y-8453D01*
X42880Y-8425D01*
X42824Y-8397D01*
X42796Y-8368D01*
X42768Y-8312D01*
X42768Y-8256D01*
X42796Y-8200D01*
X42824Y-8172D01*
X42880Y-8143D01*
X42993Y-8115D01*
X43133Y-8115D01*
X43246Y-8143D01*
X43302Y-8172D01*
X43330Y-8200D01*
X43358Y-8256D01*
X42796Y-8734D02*
X42768Y-8734D01*
X42712Y-8706D01*
X42683Y-8678D01*
X43105Y-9071D02*
X43133Y-9015D01*
X43161Y-8987D01*
X43218Y-8959D01*
X43246Y-8959D01*
X43302Y-8987D01*
X43330Y-9015D01*
X43358Y-9071D01*
X43358Y-9184D01*
X43330Y-9240D01*
X43302Y-9268D01*
X43246Y-9296D01*
X43218Y-9296D01*
X43161Y-9268D01*
X43133Y-9240D01*
X43105Y-9184D01*
X43105Y-9071D01*
X43077Y-9015D01*
X43049Y-8987D01*
X42993Y-8959D01*
X42880Y-8959D01*
X42824Y-8987D01*
X42796Y-9015D01*
X42768Y-9071D01*
X42768Y-9184D01*
X42796Y-9240D01*
X42824Y-9268D01*
X42880Y-9296D01*
X42993Y-9296D01*
X43049Y-9268D01*
X43077Y-9240D01*
X43105Y-9184D01*
X43358Y-9662D02*
X43358Y-9718D01*
X43330Y-9775D01*
X43302Y-9803D01*
X43246Y-9831D01*
X43133Y-9859D01*
X42993Y-9859D01*
X42880Y-9831D01*
X42824Y-9803D01*
X42796Y-9775D01*
X42768Y-9718D01*
X42768Y-9662D01*
X42796Y-9606D01*
X42824Y-9578D01*
X42880Y-9550D01*
X42993Y-9521D01*
X43133Y-9521D01*
X43246Y-9550D01*
X43302Y-9578D01*
X43330Y-9606D01*
X43358Y-9662D01*
X43358Y-10224D02*
X43358Y-10281D01*
X43330Y-10337D01*
X43302Y-10365D01*
X43246Y-10393D01*
X43133Y-10421D01*
X42993Y-10421D01*
X42880Y-10393D01*
X42824Y-10365D01*
X42796Y-10337D01*
X42768Y-10281D01*
X42768Y-10224D01*
X42796Y-10168D01*
X42824Y-10140D01*
X42880Y-10112D01*
X42993Y-10084D01*
X43133Y-10084D01*
X43246Y-10112D01*
X43302Y-10140D01*
X43330Y-10168D01*
X43358Y-10224D01*
X42768Y-11124D02*
X43161Y-11124D01*
X43105Y-11124D02*
X43133Y-11152D01*
X43161Y-11209D01*
X43161Y-11293D01*
X43133Y-11349D01*
X43077Y-11377D01*
X42768Y-11377D01*
X43077Y-11377D02*
X43133Y-11406D01*
X43161Y-11462D01*
X43161Y-11546D01*
X43133Y-11602D01*
X43077Y-11631D01*
X42768Y-11631D01*
X42768Y-11912D02*
X43161Y-11912D01*
X43105Y-11912D02*
X43133Y-11940D01*
X43161Y-11996D01*
X43161Y-12080D01*
X43133Y-12137D01*
X43077Y-12165D01*
X42768Y-12165D01*
X43077Y-12165D02*
X43133Y-12193D01*
X43161Y-12249D01*
X43161Y-12334D01*
X43133Y-12390D01*
X43077Y-12418D01*
X42768Y-12418D01*
X42503Y0D02*
X42503Y-20000D01*
X40669Y0D02*
X43566Y0D01*
X40669Y-20000D02*
X43566Y-20000D01*
X42503Y-20000D02*
X42273Y-19556D01*
X42503Y-20000D02*
X42734Y-19556D01*
X42503Y0D02*
X42273Y-443D01*
X42503Y0D02*
X42734Y-443D01*
X17845Y2362D02*
X17508Y2362D01*
X17677Y2362D02*
X17677Y2953D01*
X17620Y2868D01*
X17564Y2812D01*
X17508Y2784D01*
X18211Y2953D02*
X18267Y2953D01*
X18323Y2925D01*
X18352Y2897D01*
X18380Y2840D01*
X18408Y2728D01*
X18408Y2587D01*
X18380Y2475D01*
X18352Y2419D01*
X18323Y2390D01*
X18267Y2362D01*
X18211Y2362D01*
X18155Y2390D01*
X18127Y2419D01*
X18098Y2475D01*
X18070Y2587D01*
X18070Y2728D01*
X18098Y2840D01*
X18127Y2897D01*
X18155Y2925D01*
X18211Y2953D01*
X18633Y2897D02*
X18661Y2925D01*
X18717Y2953D01*
X18858Y2953D01*
X18914Y2925D01*
X18942Y2897D01*
X18970Y2840D01*
X18970Y2784D01*
X18942Y2700D01*
X18605Y2362D01*
X18970Y2362D01*
X19251Y2390D02*
X19251Y2362D01*
X19223Y2306D01*
X19195Y2278D01*
X19589Y2700D02*
X19533Y2728D01*
X19505Y2756D01*
X19476Y2812D01*
X19476Y2840D01*
X19505Y2897D01*
X19533Y2925D01*
X19589Y2953D01*
X19701Y2953D01*
X19758Y2925D01*
X19786Y2897D01*
X19814Y2840D01*
X19814Y2812D01*
X19786Y2756D01*
X19758Y2728D01*
X19701Y2700D01*
X19589Y2700D01*
X19533Y2672D01*
X19505Y2643D01*
X19476Y2587D01*
X19476Y2475D01*
X19505Y2419D01*
X19533Y2390D01*
X19589Y2362D01*
X19701Y2362D01*
X19758Y2390D01*
X19786Y2419D01*
X19814Y2475D01*
X19814Y2587D01*
X19786Y2643D01*
X19758Y2672D01*
X19701Y2700D01*
X20179Y2953D02*
X20236Y2953D01*
X20292Y2925D01*
X20320Y2897D01*
X20348Y2840D01*
X20376Y2728D01*
X20376Y2587D01*
X20348Y2475D01*
X20320Y2419D01*
X20292Y2390D01*
X20236Y2362D01*
X20179Y2362D01*
X20123Y2390D01*
X20095Y2419D01*
X20067Y2475D01*
X20039Y2587D01*
X20039Y2728D01*
X20067Y2840D01*
X20095Y2897D01*
X20123Y2925D01*
X20179Y2953D01*
X20742Y2953D02*
X20798Y2953D01*
X20854Y2925D01*
X20883Y2897D01*
X20911Y2840D01*
X20939Y2728D01*
X20939Y2587D01*
X20911Y2475D01*
X20883Y2419D01*
X20854Y2390D01*
X20798Y2362D01*
X20742Y2362D01*
X20686Y2390D01*
X20658Y2419D01*
X20629Y2475D01*
X20601Y2587D01*
X20601Y2728D01*
X20629Y2840D01*
X20658Y2897D01*
X20686Y2925D01*
X20742Y2953D01*
X21642Y2362D02*
X21642Y2756D01*
X21642Y2700D02*
X21670Y2728D01*
X21726Y2756D01*
X21811Y2756D01*
X21867Y2728D01*
X21895Y2672D01*
X21895Y2362D01*
X21895Y2672D02*
X21923Y2728D01*
X21979Y2756D01*
X22064Y2756D01*
X22120Y2728D01*
X22148Y2672D01*
X22148Y2362D01*
X22429Y2362D02*
X22429Y2756D01*
X22429Y2700D02*
X22457Y2728D01*
X22514Y2756D01*
X22598Y2756D01*
X22654Y2728D01*
X22682Y2672D01*
X22682Y2362D01*
X22682Y2672D02*
X22710Y2728D01*
X22767Y2756D01*
X22851Y2756D01*
X22907Y2728D01*
X22935Y2672D01*
X22935Y2362D01*
X0Y2098D02*
X40472Y2098D01*
X0Y110D02*
X0Y3161D01*
X40472Y110D02*
X40472Y3161D01*
X40472Y2098D02*
X40028Y1867D01*
X40472Y2098D02*
X40028Y2329D01*
X0Y2098D02*
X443Y1867D01*
X0Y2098D02*
X443Y2329D01*
M02*
