M48
;DRILL file {Pcbnew (2013-09-28 BZR 4356)-product} date 12/11/2013 13:19:05
;FORMAT={-:-/ absolute / inch / decimal}
FMAT,2
INCH,TZ
T1C0.020
T2C0.036
%
G90
G05
M72
T1
X1.1236Y-1.65
X3.3236Y-1.85
T2
X0.1236Y-0.1
X0.1236Y-0.2
X0.1236Y-0.3
X0.1236Y-0.4
X0.1236Y-0.5
X0.1236Y-0.6
X0.1236Y-0.7
X0.1236Y-0.8
X0.1236Y-0.9
X0.1236Y-1.
X0.1236Y-1.1
X0.1236Y-1.2
X0.1236Y-1.3
X0.1236Y-1.4
X0.1236Y-1.5
X0.2236Y-0.1
X0.2236Y-0.2
X0.2236Y-0.3
X0.2236Y-0.4
X0.2236Y-0.5
X0.2236Y-0.6
X0.2236Y-0.7
X0.2236Y-0.8
X0.2236Y-0.9
X0.2236Y-1.
X0.2236Y-1.1
X0.2236Y-1.2
X0.2236Y-1.3
X0.2236Y-1.4
X0.2236Y-1.5
X0.3236Y-0.1
X0.3236Y-0.2
X0.3236Y-0.3
X0.3236Y-0.4
X0.3236Y-0.5
X0.3236Y-0.6
X0.3236Y-0.7
X0.3236Y-0.8
X0.3236Y-0.9
X0.3236Y-1.
X0.3236Y-1.1
X0.3236Y-1.2
X0.3236Y-1.3
X0.3236Y-1.4
X0.3236Y-1.5
X0.4236Y-0.1
X0.4236Y-0.2
X0.4236Y-0.3
X0.4236Y-0.4
X0.4236Y-0.5
X0.4236Y-0.6
X0.4236Y-0.7
X0.4236Y-0.8
X0.4236Y-0.9
X0.4236Y-1.
X0.4236Y-1.1
X0.4236Y-1.2
X0.4236Y-1.3
X0.4236Y-1.4
X0.4236Y-1.5
X0.5236Y-0.1
X0.5236Y-0.2
X0.5236Y-0.3
X0.5236Y-0.4
X0.5236Y-0.5
X0.5236Y-0.6
X0.5236Y-0.7
X0.5236Y-0.8
X0.5236Y-0.9
X0.5236Y-1.
X0.5236Y-1.1
X0.5236Y-1.2
X0.5236Y-1.3
X0.5236Y-1.4
X0.5236Y-1.5
X0.5236Y-1.6
X0.5236Y-1.7
X0.5236Y-1.8
X0.5236Y-1.9
X0.6236Y-0.1
X0.6236Y-0.2
X0.6236Y-0.3
X0.6236Y-0.4
X0.6236Y-0.5
X0.6236Y-0.6
X0.6236Y-0.7
X0.6236Y-0.8
X0.6236Y-0.9
X0.6236Y-1.
X0.6236Y-1.1
X0.6236Y-1.2
X0.6236Y-1.3
X0.6236Y-1.4
X0.6236Y-1.5
X0.6236Y-1.6
X0.6236Y-1.7
X0.6236Y-1.8
X0.6236Y-1.9
X0.7236Y-0.1
X0.7236Y-0.2
X0.7236Y-0.3
X0.7236Y-0.4
X0.7236Y-0.5
X0.7236Y-0.6
X0.7236Y-0.7
X0.7236Y-0.8
X0.7236Y-0.9
X0.7236Y-1.
X0.7236Y-1.1
X0.7236Y-1.2
X0.7236Y-1.3
X0.7236Y-1.4
X0.7236Y-1.5
X0.7236Y-1.6
X0.7236Y-1.7
X0.7236Y-1.8
X0.7236Y-1.9
X0.8236Y-0.1
X0.8236Y-0.2
X0.8236Y-0.3
X0.8236Y-0.4
X0.8236Y-0.5
X0.8236Y-0.6
X0.8236Y-0.7
X0.8236Y-0.8
X0.8236Y-0.9
X0.8236Y-1.
X0.8236Y-1.1
X0.8236Y-1.2
X0.8236Y-1.3
X0.8236Y-1.4
X0.8236Y-1.5
X0.8236Y-1.6
X0.8236Y-1.7
X0.8236Y-1.8
X0.8236Y-1.9
X0.9236Y-0.1
X0.9236Y-0.2
X0.9236Y-0.3
X0.9236Y-0.4
X0.9236Y-0.5
X0.9236Y-0.6
X0.9236Y-0.7
X0.9236Y-0.8
X0.9236Y-0.9
X0.9236Y-1.
X0.9236Y-1.1
X0.9236Y-1.2
X0.9236Y-1.3
X0.9236Y-1.4
X0.9236Y-1.5
X0.9236Y-1.6
X0.9236Y-1.7
X0.9236Y-1.8
X0.9236Y-1.9
X1.0236Y-0.1
X1.0236Y-0.2
X1.0236Y-0.3
X1.0236Y-0.4
X1.0236Y-0.5
X1.0236Y-0.6
X1.0236Y-0.7
X1.0236Y-0.8
X1.0236Y-0.9
X1.0236Y-1.
X1.0236Y-1.1
X1.0236Y-1.2
X1.0236Y-1.3
X1.0236Y-1.4
X1.0236Y-1.5
X1.0236Y-1.6
X1.0236Y-1.7
X1.0236Y-1.8
X1.0236Y-1.9
X1.0236Y-2.
X1.1236Y-0.1
X1.1236Y-0.2
X1.1236Y-0.3
X1.1236Y-0.4
X1.1236Y-0.5
X1.1236Y-0.6
X1.1236Y-0.7
X1.1236Y-0.8
X1.1236Y-0.9
X1.1236Y-1.
X1.1236Y-1.1
X1.1236Y-1.2
X1.1236Y-1.3
X1.1236Y-1.4
X1.1236Y-1.5
X1.1236Y-1.6
X1.1236Y-1.7
X1.1236Y-1.8
X1.1236Y-1.9
X1.1236Y-2.
X1.2236Y-0.1
X1.2236Y-0.2
X1.2236Y-0.3
X1.2236Y-0.4
X1.2236Y-0.5
X1.2236Y-0.6
X1.2236Y-0.7
X1.2236Y-0.8
X1.2236Y-0.9
X1.2236Y-1.
X1.2236Y-1.1
X1.2236Y-1.2
X1.2236Y-1.3
X1.2236Y-1.4
X1.2236Y-1.5
X1.2236Y-1.6
X1.2236Y-1.7
X1.2236Y-1.8
X1.2236Y-1.9
X1.3236Y-0.1
X1.3236Y-0.2
X1.3236Y-0.3
X1.3236Y-0.4
X1.3236Y-0.5
X1.3236Y-0.6
X1.3236Y-0.7
X1.3236Y-0.8
X1.3236Y-0.9
X1.3236Y-1.
X1.3236Y-1.1
X1.3236Y-1.2
X1.3236Y-1.3
X1.3236Y-1.4
X1.3236Y-1.5
X1.3236Y-1.6
X1.3236Y-1.7
X1.3236Y-1.8
X1.3236Y-1.9
X1.4236Y-0.1
X1.4236Y-0.2
X1.4236Y-0.3
X1.4236Y-0.4
X1.4236Y-0.5
X1.4236Y-0.6
X1.4236Y-0.7
X1.4236Y-0.8
X1.4236Y-0.9
X1.4236Y-1.
X1.4236Y-1.1
X1.4236Y-1.2
X1.4236Y-1.3
X1.4236Y-1.4
X1.4236Y-1.5
X1.4236Y-1.6
X1.4236Y-1.7
X1.4236Y-1.8
X1.4236Y-1.9
X1.4236Y-2.
X1.5236Y-0.1
X1.5236Y-0.2
X1.5236Y-0.3
X1.5236Y-0.4
X1.5236Y-0.5
X1.5236Y-0.6
X1.5236Y-0.7
X1.5236Y-0.8
X1.5236Y-0.9
X1.5236Y-1.
X1.5236Y-1.1
X1.5236Y-1.2
X1.5236Y-1.3
X1.5236Y-1.4
X1.5236Y-1.5
X1.5236Y-1.6
X1.5236Y-1.7
X1.5236Y-1.8
X1.5236Y-1.9
X1.5236Y-2.
X1.6236Y-0.1
X1.6236Y-0.2
X1.6236Y-0.3
X1.6236Y-0.4
X1.6236Y-0.5
X1.6236Y-0.6
X1.6236Y-0.7
X1.6236Y-0.8
X1.6236Y-0.9
X1.6236Y-1.
X1.6236Y-1.1
X1.6236Y-1.2
X1.6236Y-1.3
X1.6236Y-1.4
X1.6236Y-1.5
X1.6236Y-1.6
X1.6236Y-1.7
X1.6236Y-1.8
X1.6236Y-1.9
X1.6236Y-2.
X1.7236Y-0.1
X1.7236Y-0.2
X1.7236Y-0.3
X1.7236Y-0.4
X1.7236Y-0.5
X1.7236Y-0.6
X1.7236Y-0.7
X1.7236Y-0.8
X1.7236Y-0.9
X1.7236Y-1.
X1.7236Y-1.1
X1.7236Y-1.2
X1.7236Y-1.3
X1.7236Y-1.4
X1.7236Y-1.5
X1.7236Y-1.6
X1.7236Y-1.7
X1.7236Y-1.8
X1.7236Y-1.9
X1.7236Y-2.
X1.8236Y-0.1
X1.8236Y-0.2
X1.8236Y-0.3
X1.8236Y-0.4
X1.8236Y-0.5
X1.8236Y-0.6
X1.8236Y-0.7
X1.8236Y-0.8
X1.8236Y-0.9
X1.8236Y-1.
X1.8236Y-1.1
X1.8236Y-1.2
X1.8236Y-1.3
X1.8236Y-1.4
X1.8236Y-1.5
X1.8236Y-1.6
X1.8236Y-1.7
X1.8236Y-1.8
X1.8236Y-1.9
X1.8236Y-2.
X1.9236Y-0.1
X1.9236Y-0.2
X1.9236Y-0.3
X1.9236Y-0.4
X1.9236Y-0.5
X1.9236Y-0.6
X1.9236Y-0.7
X1.9236Y-0.8
X1.9236Y-0.9
X1.9236Y-1.
X1.9236Y-1.1
X1.9236Y-1.2
X1.9236Y-1.3
X1.9236Y-1.4
X1.9236Y-1.5
X1.9236Y-1.6
X1.9236Y-1.7
X1.9236Y-1.8
X1.9236Y-1.9
X1.9236Y-2.
X2.0236Y-0.1
X2.0236Y-0.2
X2.0236Y-0.3
X2.0236Y-0.4
X2.0236Y-0.5
X2.0236Y-0.6
X2.0236Y-0.7
X2.0236Y-0.8
X2.0236Y-0.9
X2.0236Y-1.
X2.0236Y-1.1
X2.0236Y-1.2
X2.0236Y-1.3
X2.0236Y-1.4
X2.0236Y-1.5
X2.0236Y-1.6
X2.0236Y-1.7
X2.0236Y-1.8
X2.0236Y-1.9
X2.0236Y-2.
X2.1236Y-0.1
X2.1236Y-0.2
X2.1236Y-0.3
X2.1236Y-0.4
X2.1236Y-0.5
X2.1236Y-0.6
X2.1236Y-0.7
X2.1236Y-0.8
X2.1236Y-0.9
X2.1236Y-1.
X2.1236Y-1.1
X2.1236Y-1.2
X2.1236Y-1.3
X2.1236Y-1.4
X2.1236Y-1.5
X2.1236Y-1.6
X2.1236Y-1.7
X2.1236Y-1.8
X2.1236Y-1.9
X2.1236Y-2.
X2.2236Y-0.1
X2.2236Y-0.2
X2.2236Y-0.3
X2.2236Y-0.4
X2.2236Y-0.5
X2.2236Y-0.6
X2.2236Y-0.7
X2.2236Y-0.8
X2.2236Y-0.9
X2.2236Y-1.
X2.2236Y-1.1
X2.2236Y-1.2
X2.2236Y-1.3
X2.2236Y-1.4
X2.2236Y-1.5
X2.2236Y-1.6
X2.2236Y-1.7
X2.2236Y-1.8
X2.2236Y-1.9
X2.2236Y-2.
X2.3236Y-0.1
X2.3236Y-0.2
X2.3236Y-0.3
X2.3236Y-0.4
X2.3236Y-0.5
X2.3236Y-0.6
X2.3236Y-0.7
X2.3236Y-0.8
X2.3236Y-0.9
X2.3236Y-1.
X2.3236Y-1.1
X2.3236Y-1.2
X2.3236Y-1.3
X2.3236Y-1.4
X2.3236Y-1.5
X2.3236Y-1.6
X2.3236Y-1.7
X2.3236Y-1.8
X2.3236Y-1.9
X2.3236Y-2.
X2.4236Y-0.1
X2.4236Y-0.2
X2.4236Y-0.3
X2.4236Y-0.4
X2.4236Y-0.5
X2.4236Y-0.6
X2.4236Y-0.7
X2.4236Y-0.8
X2.4236Y-0.9
X2.4236Y-1.
X2.4236Y-1.1
X2.4236Y-1.2
X2.4236Y-1.3
X2.4236Y-1.4
X2.4236Y-1.5
X2.4236Y-1.6
X2.4236Y-1.7
X2.4236Y-1.8
X2.4236Y-1.9
X2.4236Y-2.
X2.5236Y-0.1
X2.5236Y-0.2
X2.5236Y-0.3
X2.5236Y-0.4
X2.5236Y-0.5
X2.5236Y-0.6
X2.5236Y-0.7
X2.5236Y-0.8
X2.5236Y-0.9
X2.5236Y-1.
X2.5236Y-1.1
X2.5236Y-1.2
X2.5236Y-1.3
X2.5236Y-1.4
X2.5236Y-1.5
X2.5236Y-1.6
X2.5236Y-1.7
X2.5236Y-1.8
X2.5236Y-1.9
X2.5236Y-2.
X2.6236Y-0.1
X2.6236Y-0.2
X2.6236Y-0.3
X2.6236Y-0.4
X2.6236Y-0.5
X2.6236Y-0.6
X2.6236Y-0.7
X2.6236Y-0.8
X2.6236Y-0.9
X2.6236Y-1.
X2.6236Y-1.1
X2.6236Y-1.2
X2.6236Y-1.3
X2.6236Y-1.4
X2.6236Y-1.5
X2.6236Y-1.6
X2.6236Y-1.7
X2.6236Y-1.8
X2.6236Y-1.9
X2.6236Y-2.
X2.7236Y-0.1
X2.7236Y-0.2
X2.7236Y-0.3
X2.7236Y-0.4
X2.7236Y-0.5
X2.7236Y-0.6
X2.7236Y-0.7
X2.7236Y-0.8
X2.7236Y-0.9
X2.7236Y-1.
X2.7236Y-1.1
X2.7236Y-1.2
X2.7236Y-1.3
X2.7236Y-1.4
X2.7236Y-1.5
X2.7236Y-1.6
X2.7236Y-1.7
X2.7236Y-1.8
X2.7236Y-1.9
X2.7236Y-2.
X2.8236Y-0.1
X2.8236Y-0.2
X2.8236Y-0.3
X2.8236Y-0.4
X2.8236Y-0.5
X2.8236Y-0.6
X2.8236Y-0.7
X2.8236Y-0.8
X2.8236Y-0.9
X2.8236Y-1.
X2.8236Y-1.1
X2.8236Y-1.2
X2.8236Y-1.3
X2.8236Y-1.4
X2.8236Y-1.5
X2.8236Y-1.6
X2.8236Y-1.7
X2.8236Y-1.8
X2.8236Y-1.9
X2.8236Y-2.
X2.9236Y-0.1
X2.9236Y-0.2
X2.9236Y-0.3
X2.9236Y-0.4
X2.9236Y-0.5
X2.9236Y-0.6
X2.9236Y-0.7
X2.9236Y-0.8
X2.9236Y-0.9
X2.9236Y-1.
X2.9236Y-1.1
X2.9236Y-1.2
X2.9236Y-1.3
X2.9236Y-1.4
X2.9236Y-1.5
X2.9236Y-1.6
X2.9236Y-1.7
X2.9236Y-1.8
X2.9236Y-1.9
X2.9236Y-2.
X3.0236Y-0.1
X3.0236Y-0.2
X3.0236Y-0.3
X3.0236Y-0.4
X3.0236Y-0.5
X3.0236Y-0.6
X3.0236Y-0.7
X3.0236Y-0.8
X3.0236Y-0.9
X3.0236Y-1.
X3.0236Y-1.1
X3.0236Y-1.2
X3.0236Y-1.3
X3.0236Y-1.4
X3.0236Y-1.5
X3.0236Y-1.6
X3.0236Y-1.7
X3.0236Y-1.8
X3.0236Y-1.9
X3.0236Y-2.
X3.1236Y-0.1
X3.1236Y-0.2
X3.1236Y-0.3
X3.1236Y-0.4
X3.1236Y-0.5
X3.1236Y-0.6
X3.1236Y-0.7
X3.1236Y-0.8
X3.1236Y-0.9
X3.1236Y-1.
X3.1236Y-1.1
X3.1236Y-1.2
X3.1236Y-1.3
X3.1236Y-1.4
X3.1236Y-1.5
X3.1236Y-1.6
X3.1236Y-1.7
X3.1236Y-1.8
X3.1236Y-1.9
X3.1236Y-2.
X3.2236Y-0.1
X3.2236Y-0.2
X3.2236Y-0.3
X3.2236Y-0.4
X3.2236Y-0.5
X3.2236Y-0.6
X3.2236Y-0.7
X3.2236Y-0.8
X3.2236Y-0.9
X3.2236Y-1.
X3.2236Y-1.1
X3.2236Y-1.2
X3.2236Y-1.3
X3.2236Y-1.4
X3.2236Y-1.5
X3.2236Y-1.6
X3.2236Y-1.7
X3.2236Y-1.8
X3.2236Y-1.9
X3.2236Y-2.
X3.3236Y-0.1
X3.3236Y-0.2
X3.3236Y-0.3
X3.3236Y-0.4
X3.3236Y-0.5
X3.3236Y-0.6
X3.3236Y-0.7
X3.3236Y-0.8
X3.3236Y-0.9
X3.3236Y-1.
X3.3236Y-1.1
X3.3236Y-1.2
X3.3236Y-1.3
X3.3236Y-1.4
X3.3236Y-1.5
X3.3236Y-1.6
X3.3236Y-1.7
X3.3236Y-1.8
X3.3236Y-1.9
X3.3236Y-2.
X3.4236Y-0.1
X3.4236Y-0.2
X3.4236Y-0.3
X3.4236Y-0.4
X3.4236Y-0.5
X3.4236Y-0.6
X3.4236Y-0.7
X3.4236Y-0.8
X3.4236Y-0.9
X3.4236Y-1.
X3.4236Y-1.1
X3.4236Y-1.2
X3.4236Y-1.3
X3.4236Y-1.4
X3.4236Y-1.5
X3.4236Y-1.6
X3.4236Y-1.7
X3.4236Y-1.8
X3.4236Y-2.
X3.5236Y-0.1
X3.5236Y-0.2
X3.5236Y-0.3
X3.5236Y-0.4
X3.5236Y-0.5
X3.5236Y-0.6
X3.5236Y-0.7
X3.5236Y-0.8
X3.5236Y-0.9
X3.5236Y-1.
X3.5236Y-1.1
X3.5236Y-1.2
X3.5236Y-1.3
X3.5236Y-1.4
X3.5236Y-1.5
X3.5236Y-1.6
X3.5236Y-1.7
X3.5236Y-1.8
X3.5236Y-1.9
X3.6236Y-0.1
X3.6236Y-0.2
X3.6236Y-0.3
X3.6236Y-0.4
X3.6236Y-0.5
X3.6236Y-0.6
X3.6236Y-0.7
X3.6236Y-0.8
X3.6236Y-0.9
X3.6236Y-1.
X3.6236Y-1.1
X3.6236Y-1.2
X3.6236Y-1.3
X3.6236Y-1.4
X3.6236Y-1.5
X3.6236Y-1.6
X3.6236Y-1.7
X3.6236Y-1.8
X3.6236Y-1.9
X3.7236Y-0.1
X3.7236Y-0.2
X3.7236Y-0.3
X3.7236Y-0.4
X3.7236Y-0.5
X3.7236Y-0.6
X3.7236Y-0.7
X3.7236Y-0.8
X3.7236Y-0.9
X3.7236Y-1.
X3.7236Y-1.1
X3.7236Y-1.2
X3.7236Y-1.3
X3.7236Y-1.4
X3.7236Y-1.5
X3.7236Y-1.6
X3.7236Y-1.7
X3.7236Y-1.8
X3.7236Y-1.9
X3.8236Y-0.1
X3.8236Y-0.2
X3.8236Y-0.3
X3.8236Y-0.4
X3.8236Y-0.5
X3.8236Y-0.6
X3.8236Y-0.7
X3.8236Y-0.8
X3.8236Y-0.9
X3.8236Y-1.
X3.8236Y-1.1
X3.8236Y-1.2
X3.8236Y-1.3
X3.8236Y-1.4
X3.8236Y-1.5
X3.8236Y-1.6
X3.8236Y-1.7
X3.8236Y-1.8
X3.8236Y-1.9
X3.9236Y-0.1
X3.9236Y-0.2
X3.9236Y-0.3
X3.9236Y-0.4
X3.9236Y-0.5
X3.9236Y-0.6
X3.9236Y-0.7
X3.9236Y-0.8
X3.9236Y-0.9
X3.9236Y-1.
X3.9236Y-1.1
X3.9236Y-1.2
X3.9236Y-1.3
X3.9236Y-1.4
X3.9236Y-1.5
X3.9236Y-1.6
X3.9236Y-1.7
X3.9236Y-1.8
X3.9236Y-1.9
T0
M30
