G04 (created by PCBNEW (2013-09-28 BZR 4356)-product) date 12/11/2013 13:19:40*
%MOIN*%
G04 Gerber Fmt 3.4, Leading zero omitted, Abs format*
%FSLAX34Y34*%
G01*
G70*
G90*
G04 APERTURE LIST*
%ADD10C,0.005906*%
%ADD11C,0.008858*%
%ADD12C,0.007087*%
%ADD13C,0.007480*%
%ADD14C,0.014173*%
G04 APERTURE END LIST*
G54D10*
G54D11*
X34736Y-15400D02*
X34736Y-15600D01*
X29736Y-15400D02*
X29736Y-15600D01*
X24736Y-15400D02*
X24736Y-15600D01*
X39336Y-15500D02*
X39136Y-15500D01*
X38836Y-15500D02*
X38636Y-15500D01*
X37836Y-15500D02*
X37636Y-15500D01*
X38336Y-15500D02*
X38136Y-15500D01*
X36336Y-15500D02*
X36136Y-15500D01*
X35836Y-15500D02*
X35636Y-15500D01*
X36836Y-15500D02*
X36636Y-15500D01*
X37336Y-15500D02*
X37136Y-15500D01*
X33336Y-15500D02*
X33136Y-15500D01*
X32836Y-15500D02*
X32636Y-15500D01*
X31836Y-15500D02*
X31636Y-15500D01*
X32336Y-15500D02*
X32136Y-15500D01*
X34336Y-15500D02*
X34136Y-15500D01*
X33836Y-15500D02*
X33636Y-15500D01*
X34836Y-15500D02*
X34636Y-15500D01*
X35336Y-15500D02*
X35136Y-15500D01*
X27336Y-15500D02*
X27136Y-15500D01*
X26836Y-15500D02*
X26636Y-15500D01*
X25836Y-15500D02*
X25636Y-15500D01*
X26336Y-15500D02*
X26136Y-15500D01*
X24836Y-15500D02*
X24636Y-15500D01*
X25336Y-15500D02*
X25136Y-15500D01*
X29336Y-15500D02*
X29136Y-15500D01*
X28836Y-15500D02*
X28636Y-15500D01*
X27836Y-15500D02*
X27636Y-15500D01*
X28336Y-15500D02*
X28136Y-15500D01*
X30336Y-15500D02*
X30136Y-15500D01*
X29836Y-15500D02*
X29636Y-15500D01*
X30836Y-15500D02*
X30636Y-15500D01*
X31336Y-15500D02*
X31136Y-15500D01*
X23336Y-15500D02*
X23136Y-15500D01*
X22836Y-15500D02*
X22636Y-15500D01*
X23836Y-15500D02*
X23636Y-15500D01*
X24336Y-15500D02*
X24136Y-15500D01*
X20336Y-15500D02*
X20136Y-15500D01*
X19836Y-15500D02*
X19636Y-15500D01*
X21336Y-15500D02*
X21136Y-15500D01*
X20836Y-15500D02*
X20636Y-15500D01*
X21836Y-15500D02*
X21636Y-15500D01*
X22336Y-15500D02*
X22136Y-15500D01*
X19736Y-15400D02*
X19736Y-15600D01*
X4736Y-15400D02*
X4736Y-15600D01*
X7336Y-15500D02*
X7136Y-15500D01*
X6836Y-15500D02*
X6636Y-15500D01*
X5836Y-15500D02*
X5636Y-15500D01*
X6336Y-15500D02*
X6136Y-15500D01*
X4836Y-15500D02*
X4636Y-15500D01*
X5336Y-15500D02*
X5136Y-15500D01*
X9336Y-15500D02*
X9136Y-15500D01*
X8836Y-15500D02*
X8636Y-15500D01*
X7836Y-15500D02*
X7636Y-15500D01*
X8336Y-15500D02*
X8136Y-15500D01*
X16336Y-15500D02*
X16136Y-15500D01*
X15836Y-15500D02*
X15636Y-15500D01*
X14836Y-15500D02*
X14636Y-15500D01*
X15336Y-15500D02*
X15136Y-15500D01*
X13336Y-15500D02*
X13136Y-15500D01*
X12836Y-15500D02*
X12636Y-15500D01*
X13836Y-15500D02*
X13636Y-15500D01*
X14336Y-15500D02*
X14136Y-15500D01*
X10336Y-15500D02*
X10136Y-15500D01*
X9836Y-15500D02*
X9636Y-15500D01*
X12336Y-15500D02*
X12136Y-15500D01*
X18836Y-15500D02*
X18636Y-15500D01*
X19336Y-15500D02*
X19136Y-15500D01*
X17336Y-15500D02*
X17136Y-15500D01*
X16836Y-15500D02*
X16636Y-15500D01*
X17836Y-15500D02*
X17636Y-15500D01*
X18336Y-15500D02*
X18136Y-15500D01*
X9736Y-15400D02*
X9736Y-15600D01*
X14736Y-15400D02*
X14736Y-15600D01*
X4336Y-15500D02*
X4136Y-15500D01*
X3836Y-15500D02*
X3636Y-15500D01*
X1336Y-15500D02*
X1136Y-15500D01*
X2336Y-15500D02*
X2136Y-15500D01*
X1836Y-15500D02*
X1636Y-15500D01*
X2836Y-15500D02*
X2636Y-15500D01*
X3336Y-15500D02*
X3136Y-15500D01*
X34736Y-10900D02*
X34736Y-11100D01*
X34736Y-12900D02*
X34736Y-13100D01*
X34736Y-12400D02*
X34736Y-12600D01*
X34736Y-11400D02*
X34736Y-11600D01*
X34736Y-11900D02*
X34736Y-12100D01*
X34736Y-13900D02*
X34736Y-14100D01*
X34736Y-13400D02*
X34736Y-13600D01*
X34736Y-14400D02*
X34736Y-14600D01*
X34736Y-14900D02*
X34736Y-15100D01*
X29736Y-10900D02*
X29736Y-11100D01*
X29736Y-12900D02*
X29736Y-13100D01*
X29736Y-12400D02*
X29736Y-12600D01*
X29736Y-11400D02*
X29736Y-11600D01*
X29736Y-11900D02*
X29736Y-12100D01*
X29736Y-13900D02*
X29736Y-14100D01*
X29736Y-13400D02*
X29736Y-13600D01*
X29736Y-14400D02*
X29736Y-14600D01*
X29736Y-14900D02*
X29736Y-15100D01*
X24736Y-10900D02*
X24736Y-11100D01*
X24736Y-12900D02*
X24736Y-13100D01*
X24736Y-12400D02*
X24736Y-12600D01*
X24736Y-11400D02*
X24736Y-11600D01*
X24736Y-11900D02*
X24736Y-12100D01*
X24736Y-13900D02*
X24736Y-14100D01*
X24736Y-13400D02*
X24736Y-13600D01*
X24736Y-14400D02*
X24736Y-14600D01*
X24736Y-14900D02*
X24736Y-15100D01*
X19736Y-10900D02*
X19736Y-11100D01*
X19736Y-12900D02*
X19736Y-13100D01*
X19736Y-12400D02*
X19736Y-12600D01*
X19736Y-11400D02*
X19736Y-11600D01*
X19736Y-11900D02*
X19736Y-12100D01*
X19736Y-13900D02*
X19736Y-14100D01*
X19736Y-13400D02*
X19736Y-13600D01*
X19736Y-14400D02*
X19736Y-14600D01*
X19736Y-14900D02*
X19736Y-15100D01*
X14736Y-10900D02*
X14736Y-11100D01*
X14736Y-12900D02*
X14736Y-13100D01*
X14736Y-12400D02*
X14736Y-12600D01*
X14736Y-11400D02*
X14736Y-11600D01*
X14736Y-11900D02*
X14736Y-12100D01*
X14736Y-13900D02*
X14736Y-14100D01*
X14736Y-13400D02*
X14736Y-13600D01*
X14736Y-14400D02*
X14736Y-14600D01*
X14736Y-14900D02*
X14736Y-15100D01*
X9736Y-10900D02*
X9736Y-11100D01*
X9736Y-12900D02*
X9736Y-13100D01*
X9736Y-12400D02*
X9736Y-12600D01*
X9736Y-11400D02*
X9736Y-11600D01*
X9736Y-11900D02*
X9736Y-12100D01*
X9736Y-13900D02*
X9736Y-14100D01*
X9736Y-13400D02*
X9736Y-13600D01*
X9736Y-14400D02*
X9736Y-14600D01*
X9736Y-14900D02*
X9736Y-15100D01*
X4736Y-10900D02*
X4736Y-11100D01*
X4736Y-12900D02*
X4736Y-13100D01*
X4736Y-12400D02*
X4736Y-12600D01*
X4736Y-11400D02*
X4736Y-11600D01*
X4736Y-11900D02*
X4736Y-12100D01*
X4736Y-13900D02*
X4736Y-14100D01*
X4736Y-13400D02*
X4736Y-13600D01*
X4736Y-14400D02*
X4736Y-14600D01*
X4736Y-14900D02*
X4736Y-15100D01*
X34736Y-10400D02*
X34736Y-10600D01*
X29736Y-10400D02*
X29736Y-10600D01*
X24736Y-10400D02*
X24736Y-10600D01*
X39336Y-10500D02*
X39136Y-10500D01*
X38836Y-10500D02*
X38636Y-10500D01*
X37836Y-10500D02*
X37636Y-10500D01*
X38336Y-10500D02*
X38136Y-10500D01*
X36336Y-10500D02*
X36136Y-10500D01*
X35836Y-10500D02*
X35636Y-10500D01*
X36836Y-10500D02*
X36636Y-10500D01*
X37336Y-10500D02*
X37136Y-10500D01*
X33336Y-10500D02*
X33136Y-10500D01*
X32836Y-10500D02*
X32636Y-10500D01*
X31836Y-10500D02*
X31636Y-10500D01*
X32336Y-10500D02*
X32136Y-10500D01*
X34336Y-10500D02*
X34136Y-10500D01*
X33836Y-10500D02*
X33636Y-10500D01*
X34836Y-10500D02*
X34636Y-10500D01*
X35336Y-10500D02*
X35136Y-10500D01*
X27336Y-10500D02*
X27136Y-10500D01*
X26836Y-10500D02*
X26636Y-10500D01*
X25836Y-10500D02*
X25636Y-10500D01*
X26336Y-10500D02*
X26136Y-10500D01*
X24836Y-10500D02*
X24636Y-10500D01*
X25336Y-10500D02*
X25136Y-10500D01*
X29336Y-10500D02*
X29136Y-10500D01*
X28836Y-10500D02*
X28636Y-10500D01*
X27836Y-10500D02*
X27636Y-10500D01*
X28336Y-10500D02*
X28136Y-10500D01*
X30336Y-10500D02*
X30136Y-10500D01*
X29836Y-10500D02*
X29636Y-10500D01*
X30836Y-10500D02*
X30636Y-10500D01*
X31336Y-10500D02*
X31136Y-10500D01*
X23336Y-10500D02*
X23136Y-10500D01*
X22836Y-10500D02*
X22636Y-10500D01*
X23836Y-10500D02*
X23636Y-10500D01*
X24336Y-10500D02*
X24136Y-10500D01*
X20336Y-10500D02*
X20136Y-10500D01*
X19836Y-10500D02*
X19636Y-10500D01*
X21336Y-10500D02*
X21136Y-10500D01*
X20836Y-10500D02*
X20636Y-10500D01*
X21836Y-10500D02*
X21636Y-10500D01*
X22336Y-10500D02*
X22136Y-10500D01*
X19736Y-10400D02*
X19736Y-10600D01*
X4736Y-10400D02*
X4736Y-10600D01*
X7336Y-10500D02*
X7136Y-10500D01*
X6836Y-10500D02*
X6636Y-10500D01*
X5836Y-10500D02*
X5636Y-10500D01*
X6336Y-10500D02*
X6136Y-10500D01*
X4836Y-10500D02*
X4636Y-10500D01*
X5336Y-10500D02*
X5136Y-10500D01*
X9336Y-10500D02*
X9136Y-10500D01*
X8836Y-10500D02*
X8636Y-10500D01*
X7836Y-10500D02*
X7636Y-10500D01*
X8336Y-10500D02*
X8136Y-10500D01*
X16336Y-10500D02*
X16136Y-10500D01*
X15836Y-10500D02*
X15636Y-10500D01*
X14836Y-10500D02*
X14636Y-10500D01*
X15336Y-10500D02*
X15136Y-10500D01*
X13336Y-10500D02*
X13136Y-10500D01*
X12836Y-10500D02*
X12636Y-10500D01*
X13836Y-10500D02*
X13636Y-10500D01*
X14336Y-10500D02*
X14136Y-10500D01*
X10336Y-10500D02*
X10136Y-10500D01*
X9836Y-10500D02*
X9636Y-10500D01*
X11336Y-10500D02*
X11136Y-10500D01*
X10836Y-10500D02*
X10636Y-10500D01*
X11836Y-10500D02*
X11636Y-10500D01*
X12336Y-10500D02*
X12136Y-10500D01*
X18836Y-10500D02*
X18636Y-10500D01*
X19336Y-10500D02*
X19136Y-10500D01*
X17336Y-10500D02*
X17136Y-10500D01*
X16836Y-10500D02*
X16636Y-10500D01*
X17836Y-10500D02*
X17636Y-10500D01*
X18336Y-10500D02*
X18136Y-10500D01*
X9736Y-10400D02*
X9736Y-10600D01*
X14736Y-10400D02*
X14736Y-10600D01*
X4336Y-10500D02*
X4136Y-10500D01*
X3836Y-10500D02*
X3636Y-10500D01*
X1336Y-10500D02*
X1136Y-10500D01*
X2336Y-10500D02*
X2136Y-10500D01*
X1836Y-10500D02*
X1636Y-10500D01*
X2836Y-10500D02*
X2636Y-10500D01*
X3336Y-10500D02*
X3136Y-10500D01*
X34736Y-5900D02*
X34736Y-6100D01*
X34736Y-7900D02*
X34736Y-8100D01*
X34736Y-7400D02*
X34736Y-7600D01*
X34736Y-6400D02*
X34736Y-6600D01*
X34736Y-6900D02*
X34736Y-7100D01*
X34736Y-8900D02*
X34736Y-9100D01*
X34736Y-8400D02*
X34736Y-8600D01*
X34736Y-9400D02*
X34736Y-9600D01*
X34736Y-9900D02*
X34736Y-10100D01*
X29736Y-5900D02*
X29736Y-6100D01*
X29736Y-7900D02*
X29736Y-8100D01*
X29736Y-7400D02*
X29736Y-7600D01*
X29736Y-6400D02*
X29736Y-6600D01*
X29736Y-6900D02*
X29736Y-7100D01*
X29736Y-8900D02*
X29736Y-9100D01*
X29736Y-8400D02*
X29736Y-8600D01*
X29736Y-9400D02*
X29736Y-9600D01*
X29736Y-9900D02*
X29736Y-10100D01*
X24736Y-5900D02*
X24736Y-6100D01*
X24736Y-7900D02*
X24736Y-8100D01*
X24736Y-7400D02*
X24736Y-7600D01*
X24736Y-6400D02*
X24736Y-6600D01*
X24736Y-6900D02*
X24736Y-7100D01*
X24736Y-8900D02*
X24736Y-9100D01*
X24736Y-8400D02*
X24736Y-8600D01*
X24736Y-9400D02*
X24736Y-9600D01*
X24736Y-9900D02*
X24736Y-10100D01*
X19736Y-5900D02*
X19736Y-6100D01*
X19736Y-7900D02*
X19736Y-8100D01*
X19736Y-7400D02*
X19736Y-7600D01*
X19736Y-6400D02*
X19736Y-6600D01*
X19736Y-6900D02*
X19736Y-7100D01*
X19736Y-8900D02*
X19736Y-9100D01*
X19736Y-8400D02*
X19736Y-8600D01*
X19736Y-9400D02*
X19736Y-9600D01*
X19736Y-9900D02*
X19736Y-10100D01*
X14736Y-5900D02*
X14736Y-6100D01*
X14736Y-7900D02*
X14736Y-8100D01*
X14736Y-7400D02*
X14736Y-7600D01*
X14736Y-6400D02*
X14736Y-6600D01*
X14736Y-6900D02*
X14736Y-7100D01*
X14736Y-8900D02*
X14736Y-9100D01*
X14736Y-8400D02*
X14736Y-8600D01*
X14736Y-9400D02*
X14736Y-9600D01*
X14736Y-9900D02*
X14736Y-10100D01*
X9736Y-5900D02*
X9736Y-6100D01*
X9736Y-7900D02*
X9736Y-8100D01*
X9736Y-7400D02*
X9736Y-7600D01*
X9736Y-6400D02*
X9736Y-6600D01*
X9736Y-6900D02*
X9736Y-7100D01*
X9736Y-8900D02*
X9736Y-9100D01*
X9736Y-8400D02*
X9736Y-8600D01*
X9736Y-9400D02*
X9736Y-9600D01*
X9736Y-9900D02*
X9736Y-10100D01*
X4736Y-5900D02*
X4736Y-6100D01*
X4736Y-7900D02*
X4736Y-8100D01*
X4736Y-7400D02*
X4736Y-7600D01*
X4736Y-6400D02*
X4736Y-6600D01*
X4736Y-6900D02*
X4736Y-7100D01*
X4736Y-8900D02*
X4736Y-9100D01*
X4736Y-8400D02*
X4736Y-8600D01*
X4736Y-9400D02*
X4736Y-9600D01*
X4736Y-9900D02*
X4736Y-10100D01*
X34736Y-5400D02*
X34736Y-5600D01*
X29736Y-5400D02*
X29736Y-5600D01*
X24736Y-5400D02*
X24736Y-5600D01*
X39336Y-5500D02*
X39136Y-5500D01*
X38836Y-5500D02*
X38636Y-5500D01*
X37836Y-5500D02*
X37636Y-5500D01*
X38336Y-5500D02*
X38136Y-5500D01*
X36336Y-5500D02*
X36136Y-5500D01*
X35836Y-5500D02*
X35636Y-5500D01*
X36836Y-5500D02*
X36636Y-5500D01*
X37336Y-5500D02*
X37136Y-5500D01*
X33336Y-5500D02*
X33136Y-5500D01*
X32836Y-5500D02*
X32636Y-5500D01*
X31836Y-5500D02*
X31636Y-5500D01*
X32336Y-5500D02*
X32136Y-5500D01*
X34336Y-5500D02*
X34136Y-5500D01*
X33836Y-5500D02*
X33636Y-5500D01*
X34836Y-5500D02*
X34636Y-5500D01*
X35336Y-5500D02*
X35136Y-5500D01*
X27336Y-5500D02*
X27136Y-5500D01*
X26836Y-5500D02*
X26636Y-5500D01*
X25836Y-5500D02*
X25636Y-5500D01*
X26336Y-5500D02*
X26136Y-5500D01*
X24836Y-5500D02*
X24636Y-5500D01*
X25336Y-5500D02*
X25136Y-5500D01*
X29336Y-5500D02*
X29136Y-5500D01*
X28836Y-5500D02*
X28636Y-5500D01*
X27836Y-5500D02*
X27636Y-5500D01*
X28336Y-5500D02*
X28136Y-5500D01*
X30336Y-5500D02*
X30136Y-5500D01*
X29836Y-5500D02*
X29636Y-5500D01*
X30836Y-5500D02*
X30636Y-5500D01*
X31336Y-5500D02*
X31136Y-5500D01*
X23336Y-5500D02*
X23136Y-5500D01*
X22836Y-5500D02*
X22636Y-5500D01*
X23836Y-5500D02*
X23636Y-5500D01*
X24336Y-5500D02*
X24136Y-5500D01*
X20336Y-5500D02*
X20136Y-5500D01*
X19836Y-5500D02*
X19636Y-5500D01*
X21336Y-5500D02*
X21136Y-5500D01*
X20836Y-5500D02*
X20636Y-5500D01*
X21836Y-5500D02*
X21636Y-5500D01*
X22336Y-5500D02*
X22136Y-5500D01*
X19736Y-5400D02*
X19736Y-5600D01*
X4736Y-5400D02*
X4736Y-5600D01*
X7336Y-5500D02*
X7136Y-5500D01*
X6836Y-5500D02*
X6636Y-5500D01*
X5836Y-5500D02*
X5636Y-5500D01*
X6336Y-5500D02*
X6136Y-5500D01*
X4836Y-5500D02*
X4636Y-5500D01*
X5336Y-5500D02*
X5136Y-5500D01*
X9336Y-5500D02*
X9136Y-5500D01*
X8836Y-5500D02*
X8636Y-5500D01*
X7836Y-5500D02*
X7636Y-5500D01*
X8336Y-5500D02*
X8136Y-5500D01*
X16336Y-5500D02*
X16136Y-5500D01*
X15836Y-5500D02*
X15636Y-5500D01*
X14836Y-5500D02*
X14636Y-5500D01*
X15336Y-5500D02*
X15136Y-5500D01*
X13336Y-5500D02*
X13136Y-5500D01*
X12836Y-5500D02*
X12636Y-5500D01*
X13836Y-5500D02*
X13636Y-5500D01*
X14336Y-5500D02*
X14136Y-5500D01*
X10336Y-5500D02*
X10136Y-5500D01*
X9836Y-5500D02*
X9636Y-5500D01*
X11336Y-5500D02*
X11136Y-5500D01*
X10836Y-5500D02*
X10636Y-5500D01*
X11836Y-5500D02*
X11636Y-5500D01*
X12336Y-5500D02*
X12136Y-5500D01*
X18836Y-5500D02*
X18636Y-5500D01*
X19336Y-5500D02*
X19136Y-5500D01*
X17336Y-5500D02*
X17136Y-5500D01*
X16836Y-5500D02*
X16636Y-5500D01*
X17836Y-5500D02*
X17636Y-5500D01*
X18336Y-5500D02*
X18136Y-5500D01*
X9736Y-5400D02*
X9736Y-5600D01*
X14736Y-5400D02*
X14736Y-5600D01*
X4336Y-5500D02*
X4136Y-5500D01*
X3836Y-5500D02*
X3636Y-5500D01*
X1336Y-5500D02*
X1136Y-5500D01*
X2336Y-5500D02*
X2136Y-5500D01*
X1836Y-5500D02*
X1636Y-5500D01*
X2836Y-5500D02*
X2636Y-5500D01*
X3336Y-5500D02*
X3136Y-5500D01*
X34736Y-900D02*
X34736Y-1100D01*
X34736Y-2900D02*
X34736Y-3100D01*
X34736Y-2400D02*
X34736Y-2600D01*
X34736Y-1400D02*
X34736Y-1600D01*
X34736Y-1900D02*
X34736Y-2100D01*
X34736Y-3900D02*
X34736Y-4100D01*
X34736Y-3400D02*
X34736Y-3600D01*
X34736Y-4400D02*
X34736Y-4600D01*
X34736Y-4900D02*
X34736Y-5100D01*
X29736Y-900D02*
X29736Y-1100D01*
X29736Y-2900D02*
X29736Y-3100D01*
X29736Y-2400D02*
X29736Y-2600D01*
X29736Y-1400D02*
X29736Y-1600D01*
X29736Y-1900D02*
X29736Y-2100D01*
X29736Y-3900D02*
X29736Y-4100D01*
X29736Y-3400D02*
X29736Y-3600D01*
X29736Y-4400D02*
X29736Y-4600D01*
X29736Y-4900D02*
X29736Y-5100D01*
X24736Y-900D02*
X24736Y-1100D01*
X24736Y-2900D02*
X24736Y-3100D01*
X24736Y-2400D02*
X24736Y-2600D01*
X24736Y-1400D02*
X24736Y-1600D01*
X24736Y-1900D02*
X24736Y-2100D01*
X24736Y-3900D02*
X24736Y-4100D01*
X24736Y-3400D02*
X24736Y-3600D01*
X24736Y-4400D02*
X24736Y-4600D01*
X24736Y-4900D02*
X24736Y-5100D01*
X19736Y-900D02*
X19736Y-1100D01*
X19736Y-2900D02*
X19736Y-3100D01*
X19736Y-2400D02*
X19736Y-2600D01*
X19736Y-1400D02*
X19736Y-1600D01*
X19736Y-1900D02*
X19736Y-2100D01*
X19736Y-3900D02*
X19736Y-4100D01*
X19736Y-3400D02*
X19736Y-3600D01*
X19736Y-4400D02*
X19736Y-4600D01*
X19736Y-4900D02*
X19736Y-5100D01*
X14736Y-900D02*
X14736Y-1100D01*
X14736Y-2900D02*
X14736Y-3100D01*
X14736Y-2400D02*
X14736Y-2600D01*
X14736Y-1400D02*
X14736Y-1600D01*
X14736Y-1900D02*
X14736Y-2100D01*
X14736Y-3900D02*
X14736Y-4100D01*
X14736Y-3400D02*
X14736Y-3600D01*
X14736Y-4400D02*
X14736Y-4600D01*
X14736Y-4900D02*
X14736Y-5100D01*
X9736Y-900D02*
X9736Y-1100D01*
X9736Y-2900D02*
X9736Y-3100D01*
X9736Y-2400D02*
X9736Y-2600D01*
X9736Y-1400D02*
X9736Y-1600D01*
X9736Y-1900D02*
X9736Y-2100D01*
X9736Y-3900D02*
X9736Y-4100D01*
X9736Y-3400D02*
X9736Y-3600D01*
X9736Y-4400D02*
X9736Y-4600D01*
X9736Y-4900D02*
X9736Y-5100D01*
X4736Y-900D02*
X4736Y-1100D01*
X4736Y-2900D02*
X4736Y-3100D01*
X4736Y-2400D02*
X4736Y-2600D01*
X4736Y-1400D02*
X4736Y-1600D01*
X4736Y-1900D02*
X4736Y-2100D01*
X4736Y-3900D02*
X4736Y-4100D01*
X4736Y-3400D02*
X4736Y-3600D01*
X4736Y-4400D02*
X4736Y-4600D01*
X4736Y-4900D02*
X4736Y-5100D01*
X4736Y-18400D02*
X4736Y-18600D01*
X4736Y-18900D02*
X4736Y-19100D01*
X4736Y-16900D02*
X4736Y-17100D01*
X4736Y-16400D02*
X4736Y-16600D01*
X4736Y-17400D02*
X4736Y-17600D01*
X4736Y-17900D02*
X4736Y-18100D01*
X4736Y-15900D02*
X4736Y-16100D01*
X9736Y-18400D02*
X9736Y-18600D01*
X9736Y-18900D02*
X9736Y-19100D01*
X9736Y-16900D02*
X9736Y-17100D01*
X9736Y-16400D02*
X9736Y-16600D01*
X9736Y-17400D02*
X9736Y-17600D01*
X9736Y-17900D02*
X9736Y-18100D01*
X9736Y-15900D02*
X9736Y-16100D01*
X14736Y-18400D02*
X14736Y-18600D01*
X14736Y-18900D02*
X14736Y-19100D01*
X14736Y-16900D02*
X14736Y-17100D01*
X14736Y-16400D02*
X14736Y-16600D01*
X14736Y-17400D02*
X14736Y-17600D01*
X14736Y-17900D02*
X14736Y-18100D01*
X14736Y-15900D02*
X14736Y-16100D01*
X19736Y-18400D02*
X19736Y-18600D01*
X19736Y-18900D02*
X19736Y-19100D01*
X19736Y-16900D02*
X19736Y-17100D01*
X19736Y-16400D02*
X19736Y-16600D01*
X19736Y-17400D02*
X19736Y-17600D01*
X19736Y-17900D02*
X19736Y-18100D01*
X19736Y-15900D02*
X19736Y-16100D01*
X24736Y-18400D02*
X24736Y-18600D01*
X24736Y-18900D02*
X24736Y-19100D01*
X24736Y-16900D02*
X24736Y-17100D01*
X24736Y-16400D02*
X24736Y-16600D01*
X24736Y-17400D02*
X24736Y-17600D01*
X24736Y-17900D02*
X24736Y-18100D01*
X24736Y-15900D02*
X24736Y-16100D01*
X29736Y-18400D02*
X29736Y-18600D01*
X29736Y-18900D02*
X29736Y-19100D01*
X29736Y-16900D02*
X29736Y-17100D01*
X29736Y-16400D02*
X29736Y-16600D01*
X29736Y-17400D02*
X29736Y-17600D01*
X29736Y-17900D02*
X29736Y-18100D01*
X29736Y-15900D02*
X29736Y-16100D01*
X34736Y-18400D02*
X34736Y-18600D01*
X34736Y-18900D02*
X34736Y-19100D01*
X34736Y-16900D02*
X34736Y-17100D01*
X34736Y-16400D02*
X34736Y-16600D01*
X34736Y-17400D02*
X34736Y-17600D01*
X34736Y-17900D02*
X34736Y-18100D01*
X34736Y-15900D02*
X34736Y-16100D01*
G54D12*
X11758Y-15000D02*
G75*
G03X11758Y-15000I-522J0D01*
G74*
G01*
X33746Y-17000D02*
G75*
G03X33746Y-17000I-509J0D01*
G74*
G01*
G54D13*
X34704Y-20590D02*
X34907Y-20590D01*
X34806Y-20590D02*
X34806Y-20235D01*
X34839Y-20286D01*
X34873Y-20320D01*
X34907Y-20337D01*
G54D10*
X27700Y-21532D02*
X27700Y-20334D01*
X28700Y-21532D02*
X28700Y-20961D01*
X29700Y-21532D02*
X29700Y-20892D01*
X30700Y-21532D02*
X30700Y-21005D01*
X31700Y-21532D02*
X31700Y-20587D01*
X33700Y-21532D02*
X33700Y-20438D01*
X34700Y-21532D02*
X34700Y-20737D01*
G54D14*
X44Y-12000D02*
X804Y-12000D01*
X1667Y-12000D02*
X1804Y-12000D01*
X2667Y-12000D02*
X2804Y-12000D01*
X3667Y-12000D02*
X3804Y-12000D01*
X4372Y-12402D02*
X4372Y-12597D01*
X4372Y-13402D02*
X4372Y-13597D01*
X4372Y-14404D02*
X4372Y-14597D01*
X4372Y-15402D02*
X4372Y-15624D01*
X36811Y-12000D02*
X36858Y-12000D01*
X40429Y-12000D02*
X39667Y-12000D01*
X38804Y-12000D02*
X38667Y-12000D01*
X37804Y-12000D02*
X37667Y-12000D01*
G54D10*
X34297Y-21336D02*
X34282Y-21351D01*
X34267Y-21396D01*
X34267Y-21426D01*
X34282Y-21471D01*
X34312Y-21501D01*
X34342Y-21516D01*
X34402Y-21531D01*
X34447Y-21531D01*
X34507Y-21516D01*
X34537Y-21501D01*
X34567Y-21471D01*
X34582Y-21426D01*
X34582Y-21396D01*
X34567Y-21351D01*
X34552Y-21336D01*
X34282Y-21216D02*
X34267Y-21171D01*
X34267Y-21096D01*
X34282Y-21066D01*
X34297Y-21051D01*
X34327Y-21036D01*
X34357Y-21036D01*
X34387Y-21051D01*
X34402Y-21066D01*
X34417Y-21096D01*
X34432Y-21156D01*
X34447Y-21186D01*
X34462Y-21201D01*
X34492Y-21216D01*
X34522Y-21216D01*
X34552Y-21201D01*
X34567Y-21186D01*
X34582Y-21156D01*
X34582Y-21081D01*
X34567Y-21036D01*
X34267Y-20736D02*
X34267Y-20916D01*
X34267Y-20826D02*
X34582Y-20826D01*
X34537Y-20856D01*
X34507Y-20886D01*
X34492Y-20916D01*
X33297Y-21336D02*
X33282Y-21351D01*
X33267Y-21396D01*
X33267Y-21426D01*
X33282Y-21471D01*
X33312Y-21501D01*
X33342Y-21516D01*
X33402Y-21531D01*
X33447Y-21531D01*
X33507Y-21516D01*
X33537Y-21501D01*
X33567Y-21471D01*
X33582Y-21426D01*
X33582Y-21396D01*
X33567Y-21351D01*
X33552Y-21336D01*
X33282Y-21216D02*
X33267Y-21171D01*
X33267Y-21096D01*
X33282Y-21066D01*
X33297Y-21051D01*
X33327Y-21036D01*
X33357Y-21036D01*
X33387Y-21051D01*
X33402Y-21066D01*
X33417Y-21096D01*
X33432Y-21156D01*
X33447Y-21186D01*
X33462Y-21201D01*
X33492Y-21216D01*
X33522Y-21216D01*
X33552Y-21201D01*
X33567Y-21186D01*
X33582Y-21156D01*
X33582Y-21081D01*
X33567Y-21036D01*
X33267Y-20736D02*
X33267Y-20916D01*
X33267Y-20826D02*
X33582Y-20826D01*
X33537Y-20856D01*
X33507Y-20886D01*
X33492Y-20916D01*
X33552Y-20616D02*
X33567Y-20601D01*
X33582Y-20571D01*
X33582Y-20496D01*
X33567Y-20466D01*
X33552Y-20451D01*
X33522Y-20436D01*
X33492Y-20436D01*
X33447Y-20451D01*
X33267Y-20631D01*
X33267Y-20436D01*
X32267Y-21531D02*
X32582Y-21531D01*
X32267Y-21351D01*
X32582Y-21351D01*
X32297Y-21201D02*
X32282Y-21186D01*
X32267Y-21201D01*
X32282Y-21216D01*
X32297Y-21201D01*
X32267Y-21201D01*
X32297Y-20871D02*
X32282Y-20886D01*
X32267Y-20931D01*
X32267Y-20961D01*
X32282Y-21006D01*
X32312Y-21036D01*
X32342Y-21051D01*
X32402Y-21066D01*
X32447Y-21066D01*
X32507Y-21051D01*
X32537Y-21036D01*
X32567Y-21006D01*
X32582Y-20961D01*
X32582Y-20931D01*
X32567Y-20886D01*
X32552Y-20871D01*
X31582Y-21531D02*
X31267Y-21456D01*
X31492Y-21396D01*
X31267Y-21336D01*
X31582Y-21261D01*
X31357Y-21156D02*
X31357Y-21006D01*
X31267Y-21186D02*
X31582Y-21081D01*
X31267Y-20976D01*
X31267Y-20871D02*
X31582Y-20871D01*
X31582Y-20766D02*
X31582Y-20586D01*
X31267Y-20676D02*
X31582Y-20676D01*
X29267Y-21531D02*
X29582Y-21531D01*
X29582Y-21321D02*
X29582Y-21261D01*
X29567Y-21231D01*
X29537Y-21201D01*
X29477Y-21186D01*
X29372Y-21186D01*
X29312Y-21201D01*
X29282Y-21231D01*
X29267Y-21261D01*
X29267Y-21321D01*
X29282Y-21351D01*
X29312Y-21381D01*
X29372Y-21396D01*
X29477Y-21396D01*
X29537Y-21381D01*
X29567Y-21351D01*
X29582Y-21321D01*
X29267Y-20871D02*
X29417Y-20976D01*
X29267Y-21051D02*
X29582Y-21051D01*
X29582Y-20931D01*
X29567Y-20901D01*
X29552Y-20886D01*
X29522Y-20871D01*
X29477Y-20871D01*
X29447Y-20886D01*
X29432Y-20901D01*
X29417Y-20931D01*
X29417Y-21051D01*
X29237Y-20526D02*
X29252Y-20556D01*
X29282Y-20586D01*
X29327Y-20631D01*
X29342Y-20661D01*
X29342Y-20691D01*
X29267Y-20676D02*
X29282Y-20706D01*
X29312Y-20736D01*
X29372Y-20751D01*
X29477Y-20751D01*
X29537Y-20736D01*
X29567Y-20706D01*
X29582Y-20676D01*
X29582Y-20616D01*
X29567Y-20586D01*
X29537Y-20556D01*
X29477Y-20541D01*
X29372Y-20541D01*
X29312Y-20556D01*
X29282Y-20586D01*
X29267Y-20616D01*
X29267Y-20676D01*
X30267Y-21531D02*
X30582Y-21531D01*
X30357Y-21426D01*
X30582Y-21321D01*
X30267Y-21321D01*
X30267Y-21006D02*
X30267Y-21186D01*
X30267Y-21096D02*
X30582Y-21096D01*
X30537Y-21126D01*
X30507Y-21156D01*
X30492Y-21186D01*
X28582Y-21531D02*
X28267Y-21456D01*
X28492Y-21396D01*
X28267Y-21336D01*
X28582Y-21261D01*
X28267Y-20961D02*
X28417Y-21066D01*
X28267Y-21141D02*
X28582Y-21141D01*
X28582Y-21021D01*
X28567Y-20991D01*
X28552Y-20976D01*
X28522Y-20961D01*
X28477Y-20961D01*
X28447Y-20976D01*
X28432Y-20991D01*
X28417Y-21021D01*
X28417Y-21141D01*
X27266Y-21368D02*
X27416Y-21463D01*
X27266Y-21531D02*
X27581Y-21531D01*
X27581Y-21422D01*
X27566Y-21395D01*
X27551Y-21381D01*
X27521Y-21368D01*
X27476Y-21368D01*
X27446Y-21381D01*
X27431Y-21395D01*
X27416Y-21422D01*
X27416Y-21531D01*
X27431Y-21245D02*
X27431Y-21150D01*
X27266Y-21109D02*
X27266Y-21245D01*
X27581Y-21245D01*
X27581Y-21109D01*
X27281Y-21001D02*
X27266Y-20960D01*
X27266Y-20892D01*
X27281Y-20865D01*
X27296Y-20851D01*
X27326Y-20838D01*
X27356Y-20838D01*
X27386Y-20851D01*
X27401Y-20865D01*
X27416Y-20892D01*
X27431Y-20946D01*
X27446Y-20974D01*
X27461Y-20987D01*
X27491Y-21001D01*
X27521Y-21001D01*
X27551Y-20987D01*
X27566Y-20974D01*
X27581Y-20946D01*
X27581Y-20878D01*
X27566Y-20838D01*
X27431Y-20715D02*
X27431Y-20620D01*
X27266Y-20579D02*
X27266Y-20715D01*
X27581Y-20715D01*
X27581Y-20579D01*
X27581Y-20498D02*
X27581Y-20335D01*
X27266Y-20416D02*
X27581Y-20416D01*
X26357Y-21501D02*
X26357Y-21351D01*
X26267Y-21531D02*
X26582Y-21426D01*
X26267Y-21321D01*
X26267Y-21201D02*
X26267Y-21141D01*
X26282Y-21111D01*
X26297Y-21096D01*
X26342Y-21066D01*
X26402Y-21051D01*
X26522Y-21051D01*
X26552Y-21066D01*
X26567Y-21081D01*
X26582Y-21111D01*
X26582Y-21171D01*
X26567Y-21201D01*
X26552Y-21216D01*
X26522Y-21231D01*
X26447Y-21231D01*
X26417Y-21216D01*
X26402Y-21201D01*
X26387Y-21171D01*
X26387Y-21111D01*
X26402Y-21081D01*
X26417Y-21066D01*
X26447Y-21051D01*
X25357Y-21501D02*
X25357Y-21351D01*
X25267Y-21531D02*
X25582Y-21426D01*
X25267Y-21321D01*
X25267Y-21051D02*
X25267Y-21231D01*
X25267Y-21141D02*
X25582Y-21141D01*
X25537Y-21171D01*
X25507Y-21201D01*
X25492Y-21231D01*
X25267Y-20751D02*
X25267Y-20931D01*
X25267Y-20841D02*
X25582Y-20841D01*
X25537Y-20871D01*
X25507Y-20901D01*
X25492Y-20931D01*
X24357Y-21500D02*
X24357Y-21350D01*
X24267Y-21530D02*
X24582Y-21425D01*
X24267Y-21320D01*
X24582Y-21245D02*
X24582Y-21035D01*
X24267Y-21170D01*
X23357Y-21500D02*
X23357Y-21350D01*
X23267Y-21530D02*
X23582Y-21425D01*
X23267Y-21320D01*
X23267Y-21050D02*
X23267Y-21230D01*
X23267Y-21140D02*
X23582Y-21140D01*
X23537Y-21170D01*
X23507Y-21200D01*
X23492Y-21230D01*
X23552Y-20930D02*
X23567Y-20915D01*
X23582Y-20885D01*
X23582Y-20810D01*
X23567Y-20780D01*
X23552Y-20765D01*
X23522Y-20750D01*
X23492Y-20750D01*
X23447Y-20765D01*
X23267Y-20945D01*
X23267Y-20750D01*
X22357Y-21500D02*
X22357Y-21350D01*
X22267Y-21530D02*
X22582Y-21425D01*
X22267Y-21320D01*
X22267Y-21050D02*
X22267Y-21230D01*
X22267Y-21140D02*
X22582Y-21140D01*
X22537Y-21170D01*
X22507Y-21200D01*
X22492Y-21230D01*
X22477Y-20780D02*
X22267Y-20780D01*
X22597Y-20855D02*
X22372Y-20930D01*
X22372Y-20735D01*
X21356Y-21500D02*
X21356Y-21350D01*
X21266Y-21530D02*
X21581Y-21425D01*
X21266Y-21320D01*
X21266Y-21050D02*
X21266Y-21230D01*
X21266Y-21140D02*
X21581Y-21140D01*
X21536Y-21170D01*
X21506Y-21200D01*
X21491Y-21230D01*
X20356Y-21501D02*
X20356Y-21351D01*
X20266Y-21531D02*
X20581Y-21426D01*
X20266Y-21321D01*
X20581Y-21246D02*
X20581Y-21051D01*
X20461Y-21156D01*
X20461Y-21111D01*
X20446Y-21081D01*
X20431Y-21066D01*
X20401Y-21051D01*
X20326Y-21051D01*
X20296Y-21066D01*
X20281Y-21081D01*
X20266Y-21111D01*
X20266Y-21201D01*
X20281Y-21231D01*
X20296Y-21246D01*
X19356Y-21501D02*
X19356Y-21351D01*
X19266Y-21531D02*
X19581Y-21426D01*
X19266Y-21321D01*
X19581Y-21066D02*
X19581Y-21216D01*
X19431Y-21231D01*
X19446Y-21216D01*
X19461Y-21186D01*
X19461Y-21111D01*
X19446Y-21081D01*
X19431Y-21066D01*
X19401Y-21051D01*
X19326Y-21051D01*
X19296Y-21066D01*
X19281Y-21081D01*
X19266Y-21111D01*
X19266Y-21186D01*
X19281Y-21216D01*
X19296Y-21231D01*
X18266Y-21530D02*
X18581Y-21530D01*
X18581Y-21455D01*
X18566Y-21410D01*
X18536Y-21380D01*
X18506Y-21365D01*
X18446Y-21350D01*
X18401Y-21350D01*
X18341Y-21365D01*
X18311Y-21380D01*
X18281Y-21410D01*
X18266Y-21455D01*
X18266Y-21530D01*
X18266Y-21050D02*
X18266Y-21230D01*
X18266Y-21140D02*
X18581Y-21140D01*
X18536Y-21170D01*
X18506Y-21200D01*
X18491Y-21230D01*
X17266Y-21530D02*
X17581Y-21530D01*
X17581Y-21455D01*
X17566Y-21410D01*
X17536Y-21380D01*
X17506Y-21365D01*
X17446Y-21350D01*
X17401Y-21350D01*
X17341Y-21365D01*
X17311Y-21380D01*
X17281Y-21410D01*
X17266Y-21455D01*
X17266Y-21530D01*
X17581Y-21245D02*
X17581Y-21050D01*
X17461Y-21155D01*
X17461Y-21110D01*
X17446Y-21080D01*
X17431Y-21065D01*
X17401Y-21050D01*
X17326Y-21050D01*
X17296Y-21065D01*
X17281Y-21080D01*
X17266Y-21110D01*
X17266Y-21200D01*
X17281Y-21230D01*
X17296Y-21245D01*
X16266Y-21531D02*
X16581Y-21531D01*
X16581Y-21456D01*
X16566Y-21411D01*
X16536Y-21381D01*
X16506Y-21366D01*
X16446Y-21351D01*
X16401Y-21351D01*
X16341Y-21366D01*
X16311Y-21381D01*
X16281Y-21411D01*
X16266Y-21456D01*
X16266Y-21531D01*
X16581Y-21066D02*
X16581Y-21216D01*
X16431Y-21231D01*
X16446Y-21216D01*
X16461Y-21186D01*
X16461Y-21111D01*
X16446Y-21081D01*
X16431Y-21066D01*
X16401Y-21051D01*
X16326Y-21051D01*
X16296Y-21066D01*
X16281Y-21081D01*
X16266Y-21111D01*
X16266Y-21186D01*
X16281Y-21216D01*
X16296Y-21231D01*
X15266Y-21531D02*
X15581Y-21531D01*
X15581Y-21456D01*
X15566Y-21411D01*
X15536Y-21381D01*
X15506Y-21366D01*
X15446Y-21351D01*
X15401Y-21351D01*
X15341Y-21366D01*
X15311Y-21381D01*
X15281Y-21411D01*
X15266Y-21456D01*
X15266Y-21531D01*
X15581Y-21246D02*
X15581Y-21036D01*
X15266Y-21171D01*
X12387Y-21531D02*
X12387Y-21291D01*
X12267Y-21411D02*
X12507Y-21411D01*
X12582Y-20991D02*
X12582Y-21141D01*
X12432Y-21156D01*
X12447Y-21141D01*
X12462Y-21111D01*
X12462Y-21036D01*
X12447Y-21006D01*
X12432Y-20991D01*
X12402Y-20976D01*
X12327Y-20976D01*
X12297Y-20991D01*
X12282Y-21006D01*
X12267Y-21036D01*
X12267Y-21111D01*
X12282Y-21141D01*
X12297Y-21156D01*
X12582Y-20886D02*
X12267Y-20781D01*
X12582Y-20676D01*
X13569Y-21351D02*
X13584Y-21381D01*
X13584Y-21426D01*
X13569Y-21471D01*
X13539Y-21501D01*
X13509Y-21516D01*
X13449Y-21531D01*
X13404Y-21531D01*
X13344Y-21516D01*
X13314Y-21501D01*
X13284Y-21471D01*
X13269Y-21426D01*
X13269Y-21396D01*
X13284Y-21351D01*
X13299Y-21336D01*
X13404Y-21336D01*
X13404Y-21396D01*
X13269Y-21201D02*
X13584Y-21201D01*
X13269Y-21021D01*
X13584Y-21021D01*
X13269Y-20871D02*
X13584Y-20871D01*
X13584Y-20796D01*
X13569Y-20751D01*
X13539Y-20721D01*
X13509Y-20706D01*
X13449Y-20691D01*
X13404Y-20691D01*
X13344Y-20706D01*
X13314Y-20721D01*
X13284Y-20751D01*
X13269Y-20796D01*
X13269Y-20871D01*
X14567Y-21351D02*
X14582Y-21381D01*
X14582Y-21426D01*
X14567Y-21471D01*
X14537Y-21501D01*
X14507Y-21516D01*
X14447Y-21531D01*
X14402Y-21531D01*
X14342Y-21516D01*
X14312Y-21501D01*
X14282Y-21471D01*
X14267Y-21426D01*
X14267Y-21396D01*
X14282Y-21351D01*
X14297Y-21336D01*
X14402Y-21336D01*
X14402Y-21396D01*
X14267Y-21201D02*
X14582Y-21201D01*
X14267Y-21021D01*
X14582Y-21021D01*
X14267Y-20871D02*
X14582Y-20871D01*
X14582Y-20796D01*
X14567Y-20751D01*
X14537Y-20721D01*
X14507Y-20706D01*
X14447Y-20691D01*
X14402Y-20691D01*
X14342Y-20706D01*
X14312Y-20721D01*
X14282Y-20751D01*
X14267Y-20796D01*
X14267Y-20871D01*
X11387Y-21531D02*
X11387Y-21291D01*
X11267Y-21411D02*
X11507Y-21411D01*
X11582Y-20991D02*
X11582Y-21141D01*
X11432Y-21156D01*
X11447Y-21141D01*
X11462Y-21111D01*
X11462Y-21036D01*
X11447Y-21006D01*
X11432Y-20991D01*
X11402Y-20976D01*
X11327Y-20976D01*
X11297Y-20991D01*
X11282Y-21006D01*
X11267Y-21036D01*
X11267Y-21111D01*
X11282Y-21141D01*
X11297Y-21156D01*
X11582Y-20886D02*
X11267Y-20781D01*
X11582Y-20676D01*
G54D14*
X36811Y-19956D02*
X36811Y-12000D01*
G54D12*
X10736Y-15500D02*
X10996Y-15240D01*
X11736Y-15500D02*
X11476Y-15240D01*
X11736Y-14500D02*
X11476Y-14760D01*
X10736Y-14500D02*
X10996Y-14760D01*
X32736Y-16500D02*
X32996Y-16760D01*
X33736Y-16500D02*
X33476Y-16760D01*
X33736Y-17500D02*
X33476Y-17240D01*
X32736Y-17500D02*
X32996Y-17240D01*
G54D10*
X10282Y-21532D02*
X10267Y-21492D01*
X10267Y-21425D01*
X10282Y-21399D01*
X10297Y-21385D01*
X10327Y-21372D01*
X10357Y-21372D01*
X10387Y-21385D01*
X10402Y-21399D01*
X10417Y-21425D01*
X10432Y-21479D01*
X10447Y-21505D01*
X10462Y-21518D01*
X10492Y-21532D01*
X10522Y-21532D01*
X10552Y-21518D01*
X10567Y-21505D01*
X10582Y-21479D01*
X10582Y-21412D01*
X10567Y-21372D01*
X10267Y-21252D02*
X10582Y-21252D01*
X10267Y-21093D01*
X10582Y-21093D01*
X10267Y-20959D02*
X10582Y-20959D01*
X10582Y-20893D01*
X10567Y-20853D01*
X10537Y-20826D01*
X10507Y-20813D01*
X10447Y-20800D01*
X10402Y-20800D01*
X10342Y-20813D01*
X10312Y-20826D01*
X10282Y-20853D01*
X10267Y-20893D01*
X10267Y-20959D01*
X10267Y-20680D02*
X10582Y-20680D01*
X10267Y-20547D02*
X10582Y-20547D01*
X10267Y-20387D01*
X10582Y-20387D01*
M02*
